<svg xmlns="http://www.w3.org/2000/svg" viewBox="0 0 32 40" x="0px" y="0px"><title>9-discount</title><g data-name="9-discount"><path d="M19.5,19a.5.5,0,1,0,.5.5A.5.5,0,0,0,19.5,19Zm0,0a.5.5,0,1,0,.5.5A.5.5,0,0,0,19.5,19Zm-7-7a.5.5,0,1,0,.5.5A.5.5,0,0,0,12.5,12Zm0,0a.5.5,0,1,0,.5.5A.5.5,0,0,0,12.5,12Zm15.4,2.64A5.8,5.8,0,0,1,27.09,13,6.24,6.24,0,0,1,27,11.17a3,3,0,0,0-.13-1.43,3.08,3.08,0,0,0-1.19-.84,6.1,6.1,0,0,1-1.53-1,6.1,6.1,0,0,1-1-1.53,3.08,3.08,0,0,0-.84-1.19A3,3,0,0,0,20.83,5,6.24,6.24,0,0,1,19,4.91a5.8,5.8,0,0,1-1.61-.81A3.09,3.09,0,0,0,16,3.48a3.09,3.09,0,0,0-1.36.62A5.8,5.8,0,0,1,13,4.91,6.24,6.24,0,0,1,11.17,5a3,3,0,0,0-1.43.13A3.08,3.08,0,0,0,8.9,6.35a6.1,6.1,0,0,1-1,1.53,6.1,6.1,0,0,1-1.53,1,3.08,3.08,0,0,0-1.19.84A3,3,0,0,0,5,11.17,6.24,6.24,0,0,1,4.91,13a5.8,5.8,0,0,1-.81,1.61A3.09,3.09,0,0,0,3.48,16a3.09,3.09,0,0,0,.62,1.36A5.8,5.8,0,0,1,4.91,19,6.24,6.24,0,0,1,5,20.83a3,3,0,0,0,.13,1.43,3.08,3.08,0,0,0,1.19.84,6.1,6.1,0,0,1,1.53,1,6.1,6.1,0,0,1,1,1.53,3.08,3.08,0,0,0,.84,1.19,3,3,0,0,0,1.43.13h.65a4.53,4.53,0,0,1,1.21.13,5.8,5.8,0,0,1,1.61.81,3.09,3.09,0,0,0,1.36.62,3.09,3.09,0,0,0,1.36-.62A5.8,5.8,0,0,1,19,27.09,6.24,6.24,0,0,1,20.83,27a3,3,0,0,0,1.43-.13,3.08,3.08,0,0,0,.84-1.19,6.1,6.1,0,0,1,1-1.53,6.1,6.1,0,0,1,1.53-1,3.08,3.08,0,0,0,1.19-.84A3,3,0,0,0,27,20.83,6.24,6.24,0,0,1,27.09,19a5.8,5.8,0,0,1,.81-1.61A3.09,3.09,0,0,0,28.52,16,3.09,3.09,0,0,0,27.9,14.64ZM12.5,10A2.5,2.5,0,1,1,10,12.5,2.5,2.5,0,0,1,12.5,10Zm7,12A2.5,2.5,0,1,1,22,19.5,2.5,2.5,0,0,1,19.5,22Zm2.21-10.29-10,10a1,1,0,0,1-1.42,0,1,1,0,0,1,0-1.42l10-10a1,1,0,0,1,1.42,1.42ZM19.5,19a.5.5,0,1,0,.5.5A.5.5,0,0,0,19.5,19Zm-7-6a.5.5,0,1,0-.5-.5A.5.5,0,0,0,12.5,13Z"/></g><text x="0" y="47" fill="#000000" font-size="5px" font-weight="bold" font-family="'Helvetica Neue', Helvetica, Arial-Unicode, Arial, Sans-serif">Created by Fiki Ahmadi</text><text x="0" y="52" fill="#000000" font-size="5px" font-weight="bold" font-family="'Helvetica Neue', Helvetica, Arial-Unicode, Arial, Sans-serif">from the Noun Project</text></svg>