<svg xmlns="http://www.w3.org/2000/svg" xmlns:xlink="http://www.w3.org/1999/xlink" xml:space="preserve" version="1.1" style="shape-rendering:geometricPrecision;text-rendering:geometricPrecision;image-rendering:optimizeQuality;" viewBox="0 0 847 1058.75" x="0px" y="0px" fill-rule="evenodd" clip-rule="evenodd"><defs><style type="text/css">
   
    .fil0 {fill:black}
   
  </style></defs><g><path class="fil0" d="M818 423c0,-97 -35,-186 -93,-254l-2 -1 -56 100c2,2 3,3 5,5 14,14 23,34 23,57 0,44 -35,80 -80,80 -23,0 -43,-10 -58,-25l-103 66c9,21 13,44 10,66l50 14c13,-27 41,-45 72,-45 49,0 87,44 79,93l24 5c22,-37 76,-32 92,8 24,-51 37,-108 37,-169zm-136 -298c-69,-60 -160,-97 -259,-97 -105,0 -200,41 -271,108 12,14 16,33 10,50l36 26c19,-17 45,-25 71,-20l16 -38c-54,-50 21,-123 69,-75 31,31 11,89 -41,87l-16 38c48,33 47,104 -2,135l17 42c48,-12 97,6 127,44l102 -66c-4,-9 -6,-19 -6,-29 0,-26 12,-48 30,-63l-17 -34c-49,9 -81,-51 -45,-86 9,-10 22,-15 36,-15 45,0 68,55 36,87l17 34c16,-5 33,-5 48,0l56 -100c-7,-7 -12,-17 -14,-28zm-654 298c0,81 25,156 66,218 27,-26 69,-29 100,-8l54 -54c-51,-60 -32,-150 35,-187l-16 -42c-64,11 -115,-55 -87,-113l-36 -27c-16,12 -38,14 -55,4 -39,60 -61,132 -61,209zm180 331c62,41 136,64 215,64 74,0 142,-20 201,-55 -15,-19 -14,-47 3,-66l-30 -52 -42 -5 -31 55c44,48 -27,117 -74,71 -32,-32 -9,-87 36,-87 4,0 8,0 11,1l33 -57c-17,-17 -25,-37 -24,-63l-50 -13c-30,73 -121,100 -186,53l-54 54c21,31 17,73 -8,100zm496 -53c13,-13 25,-26 35,-41 -29,4 -55,-17 -57,-46l-28 -6 -28 27 27 47c20,-4 40,3 51,19z"/></g><text x="0" y="862" fill="#000000" font-size="5px" font-weight="bold" font-family="'Helvetica Neue', Helvetica, Arial-Unicode, Arial, Sans-serif">Created by miracle</text><text x="0" y="867" fill="#000000" font-size="5px" font-weight="bold" font-family="'Helvetica Neue', Helvetica, Arial-Unicode, Arial, Sans-serif">from the Noun Project</text></svg>