<svg xmlns="http://www.w3.org/2000/svg" width="84.998" height="84.896" viewBox="0 0 84.998 84.896"><path d="M-977.68,21.985a42.094,42.094,0,0,1-21.567-5.951A41.831,41.831,0,0,1-1014.994-.75a41.675,41.675,0,0,1-4.549-16.021,41.8,41.8,0,0,1,1.882-15.967,41.8,41.8,0,0,1,7.733-14.1,41.681,41.681,0,0,1,13-10.408,42.12,42.12,0,0,1,9.467-3.522,41.708,41.708,0,0,1,9.709-1.147,42.094,42.094,0,0,1,21.566,5.951,41.836,41.836,0,0,1,15.748,16.785A41.742,41.742,0,0,1-937.51-8.027a41.732,41.732,0,0,1-19.335,24.444,2.473,2.473,0,0,0-.212-1.675l-3.5-6.8a24.6,24.6,0,0,0,8.475-31.967c-8.658-16.8-40.884-31.8-42.251-32.435a2.246,2.246,0,0,0-.949-.2,2.568,2.568,0,0,0-2.5,1.984,169.113,169.113,0,0,0-2.4,20.873c-.74,14.273.748,25.463,4.3,32.359a24.58,24.58,0,0,0,21.941,13.356,24.542,24.542,0,0,0,9.011-1.708l3.5,6.795a2.472,2.472,0,0,0,1.241,1.144c.558-.257,3.21-1.674,3.351-1.727l-3.351,1.727A41.52,41.52,0,0,1-977.68,21.985Zm3.752-14.975a19.839,19.839,0,0,1-10.153-2.8A19.7,19.7,0,0,1-991.509-3.7a26.329,26.329,0,0,1-1.721-4.39l21.047,4.24,4.987,9.674A19.617,19.617,0,0,1-973.929,7.01Zm11.109-3.443h0L-967.8-6.107l8.758-19.6a26.7,26.7,0,0,1,2.579,3.946A19.724,19.724,0,0,1-954.886-7.81a19.761,19.761,0,0,1-7.932,11.376ZM-975.074-9.463h0l-19.374-3.9a75.146,75.146,0,0,1-.968-11.189l14.193,3.157,6.151,11.935Zm4.377-2.256v0l-6.148-11.936,5.664-13.39a75.654,75.654,0,0,1,8.552,7.279L-970.7-11.721ZM-984.164-27.1h0l-11.23-2.5a167.736,167.736,0,0,1,1.324-16.722l9.907,19.22Zm4.38-2.256v0l-9.908-19.221a167.454,167.454,0,0,1,14.387,8.624l-4.478,10.6Z" transform="translate(1020.166 62.411)" fill="#8abb2a" stroke="rgba(0,0,0,0)" stroke-width="1"/></svg>