<svg xmlns="http://www.w3.org/2000/svg" xmlns:xlink="http://www.w3.org/1999/xlink" xml:space="preserve"
    style="shape-rendering:geometricPrecision;text-rendering:geometricPrecision;image-rendering:optimizeQuality;"
     fill-rule="evenodd" clip-rule="evenodd">
    <symbol id="icon-red" viewBox="0 0 847 1058.75">
        <path d="M818 423c0,-97 -35,-186 -93,-254l-2 -1 -56 100c2,2 3,3 5,5 14,14 23,34 23,57 0,44 -35,80 -80,80 -23,0 -43,-10 -58,-25l-103 66c9,21 13,44 10,66l50 14c13,-27 41,-45 72,-45 49,0 87,44 79,93l24 5c22,-37 76,-32 92,8 24,-51 37,-108 37,-169zm-136 -298c-69,-60 -160,-97 -259,-97 -105,0 -200,41 -271,108 12,14 16,33 10,50l36 26c19,-17 45,-25 71,-20l16 -38c-54,-50 21,-123 69,-75 31,31 11,89 -41,87l-16 38c48,33 47,104 -2,135l17 42c48,-12 97,6 127,44l102 -66c-4,-9 -6,-19 -6,-29 0,-26 12,-48 30,-63l-17 -34c-49,9 -81,-51 -45,-86 9,-10 22,-15 36,-15 45,0 68,55 36,87l17 34c16,-5 33,-5 48,0l56 -100c-7,-7 -12,-17 -14,-28zm-654 298c0,81 25,156 66,218 27,-26 69,-29 100,-8l54 -54c-51,-60 -32,-150 35,-187l-16 -42c-64,11 -115,-55 -87,-113l-36 -27c-16,12 -38,14 -55,4 -39,60 -61,132 -61,209zm180 331c62,41 136,64 215,64 74,0 142,-20 201,-55 -15,-19 -14,-47 3,-66l-30 -52 -42 -5 -31 55c44,48 -27,117 -74,71 -32,-32 -9,-87 36,-87 4,0 8,0 11,1l33 -57c-17,-17 -25,-37 -24,-63l-50 -13c-30,73 -121,100 -186,53l-54 54c21,31 17,73 -8,100zm496 -53c13,-13 25,-26 35,-41 -29,4 -55,-17 -57,-46l-28 -6 -28 27 27 47c20,-4 40,3 51,19z" />
    </symbol>
    <symbol id="icon-descuento" viewBox="0 0 36 36">
        <path d="M19.5,19a.5.5,0,1,0,.5.5A.5.5,0,0,0,19.5,19Zm0,0a.5.5,0,1,0,.5.5A.5.5,0,0,0,19.5,19Zm-7-7a.5.5,0,1,0,.5.5A.5.5,0,0,0,12.5,12Zm0,0a.5.5,0,1,0,.5.5A.5.5,0,0,0,12.5,12Zm15.4,2.64A5.8,5.8,0,0,1,27.09,13,6.24,6.24,0,0,1,27,11.17a3,3,0,0,0-.13-1.43,3.08,3.08,0,0,0-1.19-.84,6.1,6.1,0,0,1-1.53-1,6.1,6.1,0,0,1-1-1.53,3.08,3.08,0,0,0-.84-1.19A3,3,0,0,0,20.83,5,6.24,6.24,0,0,1,19,4.91a5.8,5.8,0,0,1-1.61-.81A3.09,3.09,0,0,0,16,3.48a3.09,3.09,0,0,0-1.36.62A5.8,5.8,0,0,1,13,4.91,6.24,6.24,0,0,1,11.17,5a3,3,0,0,0-1.43.13A3.08,3.08,0,0,0,8.9,6.35a6.1,6.1,0,0,1-1,1.53,6.1,6.1,0,0,1-1.53,1,3.08,3.08,0,0,0-1.19.84A3,3,0,0,0,5,11.17,6.24,6.24,0,0,1,4.91,13a5.8,5.8,0,0,1-.81,1.61A3.09,3.09,0,0,0,3.48,16a3.09,3.09,0,0,0,.62,1.36A5.8,5.8,0,0,1,4.91,19,6.24,6.24,0,0,1,5,20.83a3,3,0,0,0,.13,1.43,3.08,3.08,0,0,0,1.19.84,6.1,6.1,0,0,1,1.53,1,6.1,6.1,0,0,1,1,1.53,3.08,3.08,0,0,0,.84,1.19,3,3,0,0,0,1.43.13h.65a4.53,4.53,0,0,1,1.21.13,5.8,5.8,0,0,1,1.61.81,3.09,3.09,0,0,0,1.36.62,3.09,3.09,0,0,0,1.36-.62A5.8,5.8,0,0,1,19,27.09,6.24,6.24,0,0,1,20.83,27a3,3,0,0,0,1.43-.13,3.08,3.08,0,0,0,.84-1.19,6.1,6.1,0,0,1,1-1.53,6.1,6.1,0,0,1,1.53-1,3.08,3.08,0,0,0,1.19-.84A3,3,0,0,0,27,20.83,6.24,6.24,0,0,1,27.09,19a5.8,5.8,0,0,1,.81-1.61A3.09,3.09,0,0,0,28.52,16,3.09,3.09,0,0,0,27.9,14.64ZM12.5,10A2.5,2.5,0,1,1,10,12.5,2.5,2.5,0,0,1,12.5,10Zm7,12A2.5,2.5,0,1,1,22,19.5,2.5,2.5,0,0,1,19.5,22Zm2.21-10.29-10,10a1,1,0,0,1-1.42,0,1,1,0,0,1,0-1.42l10-10a1,1,0,0,1,1.42,1.42ZM19.5,19a.5.5,0,1,0,.5.5A.5.5,0,0,0,19.5,19Zm-7-6a.5.5,0,1,0-.5-.5A.5.5,0,0,0,12.5,13Z"/>
    </symbol>
    <symbol id="icon-justas">
        <path d="M5.52,60.48a4.64,4.64,0,0,1-4.62-4A49.21,49.21,0,0,1,9.86,21,49.71,49.71,0,0,1,78,9.13l2.09-2.89a1.5,1.5,0,0,1,2.62.34l5.52,14.33a1.5,1.5,0,0,1-1.47,2l-15.33-.75a1.5,1.5,0,0,1-1.14-2.38L72.36,17A40,40,0,0,0,17.7,26.64a39.57,39.57,0,0,0-3,4.93h12.5A.91.91,0,0,1,28,32.93a7.11,7.11,0,0,0-.64,5.4,6.32,6.32,0,0,0,3.85,3.8A11.78,11.78,0,0,0,41,41.39l9.4-5.26a.65.65,0,0,1,.82.15l19.65,24,2.43,2.93a4,4,0,0,1-.89,6,4.06,4.06,0,0,1-4.93-.61l-.33-.32a.09.09,0,0,0-.14.08,4,4,0,0,1-1.72,4.08,4.1,4.1,0,0,1-5.07-.58l-.3-.29a.09.09,0,0,0-.14.08,4,4,0,0,1-1.72,4.08A4.1,4.1,0,0,1,53,75.17l-.3-.29a.09.09,0,0,0-.14.08,4,4,0,0,1-6.2,4l.38-.67a7.22,7.22,0,0,0-1-8.7,7,7,0,0,0-3.83-1.93,6.93,6.93,0,0,0-4.05-3.16A6.94,6.94,0,0,0,33,59.71a6.9,6.9,0,0,0-2.76-3.87,7.33,7.33,0,0,0-9.49,1.54l-2.54,3.11H5.52Zm22.55-1.82a3.48,3.48,0,0,0-4.43.89L21,62.79a3.34,3.34,0,0,0,.53,4.75l.4.32a3.34,3.34,0,0,0,3.74.26.16.16,0,0,1,.24.17,3.35,3.35,0,0,0,1.22,3.28l.33.26a3.36,3.36,0,0,0,3.61.35.17.17,0,0,1,.25.17,3.37,3.37,0,0,0,1.27,3l.23.18a3.39,3.39,0,0,0,3.65.34.19.19,0,0,1,.29.14A3.38,3.38,0,0,0,38,78.14l.14.11a3.42,3.42,0,0,0,5.08-1l.49-.87A3.53,3.53,0,0,0,43.12,72a3.4,3.4,0,0,0-3.7-.58.1.1,0,0,1-.14-.1A3.36,3.36,0,0,0,34.69,68c-.5.09-.39-.35-.39-.35a3.36,3.36,0,0,0-4.73-4.22c-.38.05-.33-.29-.33-.29A3.34,3.34,0,0,0,28.07,58.66ZM97.43,35.79l-.32-1v0a4.67,4.67,0,0,0-4.43-3.18h-11a11.85,11.85,0,0,1-4.22-.78L56.77,22.9a12.91,12.91,0,0,0-12.42,1.79l-13,9.87A2.47,2.47,0,0,0,32,38.64a8.15,8.15,0,0,0,7.23-.36l11.06-6.19a2,2,0,0,1,2.49.47l24.11,29.3a.61.61,0,0,0,.86.09l1-.83a2.82,2.82,0,0,1,1.78-.63h7.83A39.84,39.84,0,0,1,25.84,81.74L28.05,79a1.5,1.5,0,0,0-1-2.44L11.78,75a1.5,1.5,0,0,0-1.58,2l4.71,14.61A1.5,1.5,0,0,0,17.5,92l2.24-2.77A49.53,49.53,0,0,0,97.43,35.79Z"/>
    </symbol>
    <symbol id="icon-sinergias">
        <path d="m36 51.5c0-2.941-2.393-5.333-5.333-5.333s-5.333 2.393-5.333 5.333c0 2.941 2.393 5.334 5.333 5.334s5.333-2.393 5.333-5.334zm-5.333 3.657c-2.016 0-3.657-1.641-3.657-3.657s1.641-3.657 3.657-3.657 3.657 1.641 3.657 3.657c-1e-3 2.017-1.641 3.657-3.657 3.657z"/>
        <circle cx="50.667" cy="69.5" r="2.296"/>
        <path d="m49.25 62.315v-7.644c-1.772-0.47-3.164-1.879-3.588-3.672h-7.688c0.011 0.167 0.026 0.332 0.026 0.501 0 3.193-2.054 5.908-4.908 6.913 2.171 4.349 5.898 7.706 10.444 9.405 0.655-2.781 2.898-4.947 5.714-5.503z"/>
        <path d="m37.551 49h8.051c0.335-1.931 1.776-3.472 3.648-3.965v-7.341c-2.917-0.573-5.217-2.881-5.781-5.802-5.525 2.093-9.869 6.736-11.586 12.384 2.626 0.442 4.778 2.279 5.668 4.724z"/>
        <path d="m50.667 35.834c2.941 0 5.333-2.393 5.333-5.334s-2.393-5.333-5.333-5.333-5.333 2.393-5.333 5.333c-1e-3 2.941 2.392 5.334 5.333 5.334zm0-9.63c2.369 0 4.295 1.927 4.295 4.296s-1.927 4.296-4.295 4.296-4.295-1.927-4.295-4.296 1.926-4.296 4.295-4.296z"/>
        <circle cx="30.667" cy="51.5" r="1.657"/>
        <path d="m47.517 49.853c0 1.654 1.346 3.001 3 3.001s3.001-1.347 3.001-3.001-1.347-3-3.001-3-3 1.345-3 3z"/>
        <path d="m51.25 37.804v7.122c2.128 0.316 3.815 1.962 4.182 4.074h8.351c0.801-2.198 2.619-3.906 4.887-4.55-1.606-5.472-5.65-10.005-10.876-12.25-0.727 3.042-3.348 5.351-6.544 5.604z"/>
        <path d="m50.667 64.166c-2.94 0-5.333 2.393-5.333 5.334s2.393 5.334 5.333 5.334c2.941 0 5.333-2.393 5.333-5.334s-2.393-5.334-5.333-5.334zm0 9.63c-2.369 0-4.295-1.927-4.295-4.296s1.927-4.296 4.295-4.296 4.295 1.927 4.295 4.296-1.927 4.296-4.295 4.296z"/>
        <path d="m70.666 46.167c-2.94 0-5.332 2.393-5.332 5.333 0 2.941 2.392 5.334 5.332 5.334 2.941 0 5.334-2.393 5.334-5.334s-2.393-5.333-5.334-5.333zm0 8.99c-2.016 0-3.656-1.641-3.656-3.657s1.641-3.657 3.656-3.657c2.017 0 3.657 1.641 3.657 3.657 0 2.017-1.64 3.657-3.657 3.657z"/>
        <circle cx="50.667" cy="30.5" r="2.296"/>
        <path d="m63.334 51.5c0-0.169 0.014-0.334 0.025-0.5h-7.987c-0.466 1.971-2.095 3.488-4.122 3.79v7.425c3.095 0.248 5.655 2.403 6.471 5.305 4.3-1.821 7.809-5.173 9.829-9.391-2.487-1.175-4.216-3.7-4.216-6.629z"/>
        <path d="m91.727 42.868h-6.022c-0.945 0-2.017-0.804-2.325-1.813l-3.463-8.421-0.05-0.103c-0.456-0.828-0.268-2.144 0.404-2.817l4.248-4.25c0.667-0.667 1.034-1.554 1.034-2.499s-0.367-1.833-1.033-2.5l-4.889-4.897c-1.327-1.315-3.658-1.316-4.99 4e-3l-4.258 4.265c-0.639 0.639-2.024 0.84-2.813 0.403l-8.526-3.52-0.098-0.034c-0.909-0.269-1.706-1.342-1.706-2.297v-6.018c0-1.948-1.588-3.532-3.539-3.532h-6.909c-1.947 0-3.531 1.584-3.531 3.532v6.018c0 0.955-0.799 2.028-1.709 2.297l-8.52 3.504-0.104 0.05c-0.789 0.437-2.172 0.234-2.814-0.403l-4.254-4.261c-1.331-1.323-3.668-1.321-4.991 1e-3l-4.902 4.891c-1.365 1.377-1.365 3.617 3e-3 4.996l4.254 4.25c0.672 0.672 0.864 1.99 0.41 2.821l-3.544 8.61c-0.278 0.918-1.353 1.723-2.299 1.723h-6.024c-1.946 0-3.53 1.585-3.53 3.533v6.911c0 1.949 1.583 3.535 3.53 3.535h6.024c0.949 0 2.023 0.801 2.331 1.806l3.464 8.413 0.046 0.097c0.455 0.836 0.266 2.155-0.405 2.823l-4.259 4.256c-1.374 1.379-1.373 3.618 1e-3 4.99l4.899 4.901c1.331 1.314 3.663 1.311 4.994-0.014l4.25-4.244c0.644-0.642 2.026-0.844 2.82-0.407l8.522 3.517 0.101 0.035c0.909 0.265 1.706 1.335 1.706 2.29v6.024c0 1.947 1.584 3.532 3.531 3.532h6.909c1.951 0 3.539-1.585 3.539-3.532v-6.024c0-0.956 0.796-2.025 1.702-2.29l8.524-3.504 0.101-0.048c0.791-0.438 2.177-0.237 2.815 0.405l4.256 4.252c1.325 1.337 3.671 1.337 4.996 2e-3l4.88-4.892c0.668-0.662 1.037-1.547 1.038-2.493 1e-3 -0.949-0.366-1.838-1.034-2.502l-4.256-4.254c-0.669-0.671-0.854-1.988-0.396-2.819l3.545-8.608c0.273-0.912 1.344-1.712 2.292-1.712h6.022c1.95 0 3.537-1.586 3.537-3.535v-6.911c2e-3 -1.948-1.585-3.533-3.535-3.533zm-21.061 15.966c-0.405 0-0.799-0.042-1.187-0.105-2.286 4.946-6.416 8.852-11.483 10.845-0.04 4.01-3.311 7.261-7.33 7.261-3.913 0-7.111-3.084-7.313-6.948-5.428-1.867-9.86-5.862-12.293-11.071-0.131 7e-3 -0.26 0.02-0.393 0.02-4.043 0-7.333-3.29-7.333-7.334 0-3.756 2.839-6.857 6.483-7.28 1.86-6.777 6.894-12.138 13.553-14.42 0.354-3.716 3.49-6.633 7.297-6.633 3.912 0 7.109 3.082 7.314 6.944 6.15 2.417 10.911 7.681 12.687 14.056 4.043 0 7.333 3.29 7.333 7.333s-3.291 7.332-7.335 7.332z"/>
        <circle cx="70.666" cy="51.5" r="1.657"/>
    </symbol>
    <defs>
		<filter id="innershadow" x0="-50%" y0="-50%" width="200%" height="200%">
			<feGaussianBlur in="SourceAlpha" stdDeviation="3" result="blur"></feGaussianBlur>
			<feOffset dy="2" dx="3"></feOffset>
			<feComposite in2="SourceAlpha" operator="arithmetic" k2="-1" k3="1" result="shadowDiff"></feComposite>
			
           <feFlood flood-color="#444444" flood-opacity="0.75"></feFlood>
		   <feComposite in2="shadowDiff" operator="in"></feComposite>
		   <feComposite in2="SourceGraphic" operator="over" result="firstfilter"></feComposite>
          
          
          <feGaussianBlur in="firstfilter" stdDeviation="3" result="blur2"></feGaussianBlur>
			<feOffset dy="-2" dx="-3"></feOffset>
			<feComposite in2="firstfilter" operator="arithmetic" k2="-1" k3="1" result="shadowDiff"></feComposite>
			
           <feFlood flood-color="#444444" flood-opacity="0.75"></feFlood>
			<feComposite in2="shadowDiff" operator="in"></feComposite>
			<feComposite in2="firstfilter" operator="over"></feComposite>
		</filter>
	</defs>
</svg>