<svg xmlns="http://www.w3.org/2000/svg" xmlns:xlink="http://www.w3.org/1999/xlink" version="1.1" x="0px" y="0px" viewBox="0 0 100 125" enable-background="new 0 0 100 100" xml:space="preserve"><g><path d="M36,51.5c0-2.941-2.393-5.333-5.333-5.333s-5.333,2.393-5.333,5.333c0,2.941,2.393,5.334,5.333,5.334S36,54.441,36,51.5z    M30.667,55.157c-2.016,0-3.657-1.641-3.657-3.657c0-2.016,1.641-3.657,3.657-3.657s3.657,1.641,3.657,3.657   C34.323,53.517,32.683,55.157,30.667,55.157z"/><circle cx="50.667" cy="69.5" r="2.296"/><path d="M49.25,62.315v-7.644c-1.772-0.47-3.164-1.879-3.588-3.672h-7.688C37.985,51.166,38,51.331,38,51.5   c0,3.193-2.054,5.908-4.908,6.913c2.171,4.349,5.898,7.706,10.444,9.405C44.191,65.037,46.434,62.871,49.25,62.315z"/><path d="M37.551,49h8.051c0.335-1.931,1.776-3.472,3.648-3.965v-7.341c-2.917-0.573-5.217-2.881-5.781-5.802   c-5.525,2.093-9.869,6.736-11.586,12.384C34.509,44.718,36.661,46.555,37.551,49z"/><path d="M50.667,35.834c2.941,0,5.333-2.393,5.333-5.334c0-2.941-2.393-5.333-5.333-5.333c-2.94,0-5.333,2.393-5.333,5.333   C45.333,33.441,47.726,35.834,50.667,35.834z M50.667,26.204c2.369,0,4.295,1.927,4.295,4.296s-1.927,4.296-4.295,4.296   s-4.295-1.927-4.295-4.296S48.298,26.204,50.667,26.204z"/><circle cx="30.667" cy="51.5" r="1.657"/><path d="M47.517,49.853c0,1.654,1.346,3.001,3,3.001s3.001-1.347,3.001-3.001s-1.347-3-3.001-3S47.517,48.198,47.517,49.853z"/><path d="M51.25,37.804v7.122c2.128,0.316,3.815,1.962,4.182,4.074h8.351c0.801-2.198,2.619-3.906,4.887-4.55   c-1.606-5.472-5.65-10.005-10.876-12.25C57.067,35.242,54.446,37.551,51.25,37.804z"/><path d="M50.667,64.166c-2.94,0-5.333,2.393-5.333,5.334s2.393,5.334,5.333,5.334c2.941,0,5.333-2.393,5.333-5.334   S53.607,64.166,50.667,64.166z M50.667,73.796c-2.369,0-4.295-1.927-4.295-4.296s1.927-4.296,4.295-4.296s4.295,1.927,4.295,4.296   S53.035,73.796,50.667,73.796z"/><path d="M70.666,46.167c-2.94,0-5.332,2.393-5.332,5.333c0,2.941,2.392,5.334,5.332,5.334c2.941,0,5.334-2.393,5.334-5.334   C76,48.559,73.607,46.167,70.666,46.167z M70.666,55.157c-2.016,0-3.656-1.641-3.656-3.657c0-2.016,1.641-3.657,3.656-3.657   c2.017,0,3.657,1.641,3.657,3.657C74.323,53.517,72.683,55.157,70.666,55.157z"/><circle cx="50.667" cy="30.5" r="2.296"/><path d="M63.334,51.5c0-0.169,0.014-0.334,0.025-0.5h-7.987c-0.466,1.971-2.095,3.488-4.122,3.79v7.425   c3.095,0.248,5.655,2.403,6.471,5.305c4.3-1.821,7.809-5.173,9.829-9.391C65.063,56.954,63.334,54.429,63.334,51.5z"/><path d="M91.727,42.868h-6.022c-0.945,0-2.017-0.804-2.325-1.813l-3.463-8.421l-0.05-0.103c-0.456-0.828-0.268-2.144,0.404-2.817   l4.248-4.25c0.667-0.667,1.034-1.554,1.034-2.499c0-0.945-0.367-1.833-1.033-2.5l-4.889-4.897c-1.327-1.315-3.658-1.316-4.99,0.004   l-4.258,4.265c-0.639,0.639-2.024,0.84-2.813,0.403l-8.526-3.52l-0.098-0.034c-0.909-0.269-1.706-1.342-1.706-2.297V8.371   c0-1.948-1.588-3.532-3.539-3.532h-6.909c-1.947,0-3.531,1.584-3.531,3.532v6.018c0,0.955-0.799,2.028-1.709,2.297l-8.52,3.504   l-0.104,0.05c-0.789,0.437-2.172,0.234-2.814-0.403l-4.254-4.261c-1.331-1.323-3.668-1.321-4.991,0.001l-4.902,4.891   c-1.365,1.377-1.365,3.617,0.003,4.996l4.254,4.25c0.672,0.672,0.864,1.99,0.41,2.821l-3.544,8.61   c-0.278,0.918-1.353,1.723-2.299,1.723H8.767c-1.946,0-3.53,1.585-3.53,3.533v6.911c0,1.949,1.583,3.535,3.53,3.535h6.024   c0.949,0,2.023,0.801,2.331,1.806l3.464,8.413l0.046,0.097c0.455,0.836,0.266,2.155-0.405,2.823l-4.259,4.256   c-1.374,1.379-1.373,3.618,0.001,4.99l4.899,4.901c1.331,1.314,3.663,1.311,4.994-0.014l4.25-4.244   c0.644-0.642,2.026-0.844,2.82-0.407l8.522,3.517l0.101,0.035c0.909,0.265,1.706,1.335,1.706,2.29v6.024   c0,1.947,1.584,3.532,3.531,3.532h6.909c1.951,0,3.539-1.585,3.539-3.532V85.31c0-0.956,0.796-2.025,1.702-2.29l8.524-3.504   l0.101-0.048c0.791-0.438,2.177-0.237,2.815,0.405l4.256,4.252c1.325,1.337,3.671,1.337,4.996,0.002l4.88-4.892   c0.668-0.662,1.037-1.547,1.038-2.493c0.001-0.949-0.366-1.838-1.034-2.502l-4.256-4.254c-0.669-0.671-0.854-1.988-0.396-2.819   l3.545-8.608c0.273-0.912,1.344-1.712,2.292-1.712h6.022c1.95,0,3.537-1.586,3.537-3.535v-6.911   C95.264,44.453,93.677,42.868,91.727,42.868z M70.666,58.834c-0.405,0-0.799-0.042-1.187-0.105   c-2.286,4.946-6.416,8.852-11.483,10.845c-0.04,4.01-3.311,7.261-7.33,7.261c-3.913,0-7.111-3.084-7.313-6.948   c-5.428-1.867-9.86-5.862-12.293-11.071c-0.131,0.007-0.26,0.02-0.393,0.02c-4.043,0-7.333-3.29-7.333-7.334   c0-3.756,2.839-6.857,6.483-7.28c1.86-6.777,6.894-12.138,13.553-14.42c0.354-3.716,3.49-6.633,7.297-6.633   c3.912,0,7.109,3.082,7.314,6.944c6.15,2.417,10.911,7.681,12.687,14.056c4.043,0,7.333,3.29,7.333,7.333   S74.71,58.834,70.666,58.834z"/><circle cx="70.666" cy="51.5" r="1.657"/></g><text x="0" y="115" fill="#000000" font-size="5px" font-weight="bold" font-family="'Helvetica Neue', Helvetica, Arial-Unicode, Arial, Sans-serif">Created by Brand Mania</text><text x="0" y="120" fill="#000000" font-size="5px" font-weight="bold" font-family="'Helvetica Neue', Helvetica, Arial-Unicode, Arial, Sans-serif">from the Noun Project</text></svg>