<svg xmlns="http://www.w3.org/2000/svg" width="48.126" height="48.125" viewBox="0 0 48.126 48.125"><path d="M1292.979,557.456l-8.142-1.811a43.243,43.243,0,0,0,.555,6.418l11.115,2.24Z" transform="translate(-1270.929 -534.217)" fill="#8abb2a"/><path d="M1310.116,489.146a95.619,95.619,0,0,0-8.253-4.947l5.684,11.027Z" transform="translate(-1284.671 -476.553)" fill="#ec411b"/><path d="M1285.662,490.911a95.579,95.579,0,0,0-.759,9.592l6.443,1.434Z" transform="translate(-1270.983 -481.97)" fill="#8abb2a"/><path d="M1343.594,533.03l4.627-10.353a43.533,43.533,0,0,0-4.906-4.176l-3.249,7.681Z" transform="translate(-1315.504 -504.238)" fill="#ec411b"/><path d="M1291.345,604.6a15.329,15.329,0,0,0,.987,2.519,11.337,11.337,0,0,0,13.947,5.463l-2.86-5.549Z" transform="translate(-1276.182 -573.732)" fill="#8abb2a"/><path d="M1373.461,554.482a15.424,15.424,0,0,0-1.479-2.263l-5.024,11.244,2.858,5.55A11.338,11.338,0,0,0,1373.461,554.482Z" transform="translate(-1337.209 -531.452)" fill="#ec411b"/><path d="M1258.189,457.606a24.058,24.058,0,1,0-11.337,32.879,1.409,1.409,0,0,1-.711-.656l-2.008-3.9a14.156,14.156,0,0,1-17.755-6.682c-4.965-9.634-1.253-29.687-1.09-30.536a1.461,1.461,0,0,1,1.981-1.021c.784.361,19.271,8.973,24.237,18.606a14.157,14.157,0,0,1-4.861,18.337l2.009,3.9a1.411,1.411,0,0,1,.121.959A24.059,24.059,0,0,0,1258.189,457.606Z" transform="translate(-1212.741 -444.564)" fill="#8abb2a"/></svg>