<svg xmlns="http://www.w3.org/2000/svg" width="221.992" height="140.124" viewBox="0 0 221.992 140.124"><defs><style>.a{fill:#1a1818;}.b{fill:#8abb2a;}.c{fill:#fff;}.d{fill:#ec411b;}</style></defs><g transform="translate(-91.345 -80.37)"><path class="a" d="M91.345,424.93h1.8c.681,0,1.018-.34,1.067-1.067l2.38-30.063h3.451l9.031,19.864c.829,1.749,1.7,4.03,1.7,4.03h.1s.868-2.281,1.649-4.03l9.031-19.864H125l2.38,30.063c.047.728.392,1.067,1.068,1.067h1.842v3.012h-3.3c-2.087,0-2.818-.874-2.964-2.964l-1.6-20.736c-.144-1.844-.144-4.759-.144-4.759h-.1a45.478,45.478,0,0,1-1.748,4.759l-8.11,17.339h-3.059L101.2,404.242c-.776-1.7-1.8-4.856-1.8-4.856h-.1s0,3.011-.146,4.856l-1.6,20.736c-.145,2.09-.873,2.964-2.965,2.964H91.345Z" transform="translate(0 -208.029)"/><path class="a" d="M230.933,430.912H232.3v-.293c0-5.1-1.846-6.9-6.315-6.9-1.213,0-4.759.343-4.759,2.137v1.556h-3.155v-2.332c0-3.4,5.827-4.127,7.963-4.127,7.722,0,9.569,4.127,9.569,9.374v11.7a.952.952,0,0,0,1.071,1.069h2.038v2.864h-3.351c-2.09,0-2.914-.924-2.914-2.912,0-1.072.047-1.8.047-1.8h-.1a8.636,8.636,0,0,1-8.108,5.291c-4.079,0-8.307-2.376-8.307-7.233,0-8.112,10.732-8.4,14.957-8.4m-6.117,12.821c4.661,0,7.479-4.858,7.479-9.081v-1.117h-1.409c-3.838,0-11.508.1-11.508,5.585,0,2.281,1.8,4.613,5.438,4.613" transform="translate(-82.72 -226.054)"/><path class="a" d="M303.639,402.931a8.625,8.625,0,0,1,7.966,4.563h.1a17.858,17.858,0,0,1-.1-1.845v-7.918a.972.972,0,0,0-1.069-1.066H308.5V393.8h3.45c2.088,0,2.963.877,2.963,2.964v27.245a.949.949,0,0,0,1.065,1.069h2.041v2.864h-3.4c-2.041,0-2.916-.924-2.916-2.72a10.889,10.889,0,0,1,.1-1.552h-.1s-1.99,4.853-8.4,4.853c-6.554,0-10.635-5.242-10.635-12.821,0-7.72,4.565-12.77,10.974-12.77M311.7,415.7c0-4.953-2.521-9.809-7.77-9.809-4.324,0-7.865,3.641-7.865,9.809,0,6.023,3.156,9.86,7.722,9.86,4.078,0,7.913-2.915,7.913-9.86" transform="translate(-133.62 -208.028)"/><path class="a" d="M377.952,426.145a.972.972,0,0,0-1.07-1.07h-2.036v-2.868h3.4c2.038,0,2.963.828,2.963,2.77v1.651a17.982,17.982,0,0,1-.1,1.846h.1c1.166-3.691,3.883-6.507,7.721-6.507a6.694,6.694,0,0,1,1.312.144v3.256a8.337,8.337,0,0,0-1.215-.1c-3.45,0-6.021,2.718-7.091,6.313a16.142,16.142,0,0,0-.678,4.759v10.3h-3.3Z" transform="translate(-188.165 -226.725)"/><path class="a" d="M430.949,407.449a.971.971,0,0,0-1.068-1.069H427.84v-2.868h3.45c2.087,0,2.962.878,2.962,2.964v17.532a.952.952,0,0,0,1.068,1.069h2.041v2.864H433.91c-2.088,0-2.961-.874-2.961-2.964Zm-.1-13.65h3.2v4.178h-3.2Z" transform="translate(-223.338 -208.029)"/><path class="a" d="M465.682,444.974l13.744-17.144c.922-1.166,1.944-2.235,1.944-2.235v-.1a23.19,23.19,0,0,1-2.431.1H470a.954.954,0,0,0-1.072,1.069v1.9h-3.105v-2.915c0-2.087.874-2.964,2.964-2.964h16.948v2.186l-13.695,17.1c-.973,1.164-2.04,2.236-2.04,2.236v.094s.874-.094,2.475-.094h10.1a.952.952,0,0,0,1.066-1.072v-1.894h3.109v2.914c0,2.09-.875,2.964-2.962,2.964H465.682Z" transform="translate(-248.454 -227.198)"/><path class="a" d="M540.038,398.182h-3.156v-5.389h14.907c6.218,0,10.683,3.205,10.683,8.887a8.038,8.038,0,0,1-4.173,7.382v.1c3.737,1.114,5.532,4.612,5.532,8.108,0,6.9-5.484,10-11.894,10h-8.6c-2.285,0-3.3-.972-3.3-3.3Zm11.8,8.7c2.669,0,4.178-1.944,4.178-4.422a3.954,3.954,0,0,0-4.274-4.273H546.4v8.7Zm-4.371,15h4.954c3.108,0,4.858-2.089,4.858-5a4.616,4.616,0,0,0-4.858-4.955H546.4v8.887a.972.972,0,0,0,1.069,1.069" transform="translate(-295.711 -207.361)"/><path class="a" d="M629.575,408.819a.953.953,0,0,0-1.068-1.07h-1.945v-5.243h5.875c2.283,0,3.254,1.018,3.254,3.3v15.2a.975.975,0,0,0,1.072,1.069h1.942v5.2h-5.877c-2.282,0-3.253-.973-3.253-3.3Zm.289-16.025h5.345v5.68h-5.345Z" transform="translate(-355.233 -207.361)"/><path class="a" d="M684.3,419.945c7.575,0,13.6,5.39,13.6,12.966,0,7.623-6.023,12.965-13.6,12.965-7.525,0-13.549-5.342-13.549-12.965,0-7.576,6.024-12.966,13.549-12.966m0,20.689a7.733,7.733,0,1,0-7.333-7.723,7.374,7.374,0,0,0,7.333,7.723" transform="translate(-384.563 -225.382)"/><path class="b" d="M313.789,107.6A41.939,41.939,0,1,1,257.3,89.529,41.941,41.941,0,0,1,313.789,107.6" transform="translate(-95.055 -2.981)"/><path class="c" d="M294.5,102.46c-.283,1.479-6.756,36.437,1.9,53.232a24.677,24.677,0,0,0,30.951,11.648l3.5,6.795a2.464,2.464,0,1,0,4.38-2.257l-3.5-6.8a24.68,24.68,0,0,0,8.475-31.967c-8.656-16.794-40.884-31.806-42.251-32.436a2.548,2.548,0,0,0-3.454,1.78m30.593,60.5a19.763,19.763,0,0,1-24.313-9.524,26.682,26.682,0,0,1-1.72-4.39l21.047,4.241Zm-7.877-15.285-19.377-3.905a75.32,75.32,0,0,1-.968-11.188l14.193,3.157Zm-9.091-17.64-11.232-2.5a166.616,166.616,0,0,1,1.323-16.722Zm-5.528-21.479a166.708,166.708,0,0,1,14.387,8.624l-4.479,10.6Zm12.847,24.926,5.664-13.39a75.89,75.89,0,0,1,8.552,7.28l-8.066,18.048Zm9.043,17.549,8.758-19.6a26.872,26.872,0,0,1,2.579,3.945,19.765,19.765,0,0,1-6.354,25.33Z" transform="translate(-133.116 -13.344)"/><path class="d" d="M495.749,83.155c.126,1.828,2.8,44.983-10.111,63.987a30.017,30.017,0,0,1-39.082,9.516l-5.223,7.687a3,3,0,1,1-4.956-3.368l5.226-7.687a30.017,30.017,0,0,1-5.534-39.841c12.917-19,54.032-32.392,55.775-32.952a3.1,3.1,0,0,1,3.906,2.656M449.927,151.7a24.039,24.039,0,0,0,30.753-7.926,32.327,32.327,0,0,0,2.721-5.049l-26.033,2.028Zm11.755-17.3,23.97-1.867a91.854,91.854,0,0,0,2.812-13.367l-17.6,1.728Zm13.566-19.961,13.93-1.367a201.683,201.683,0,0,0,.856-20.385Zm9.833-25.12a202.89,202.89,0,0,0-18.639,8.3l3.854,13.456Zm-19.173,28.207-4.871-17a92.319,92.319,0,0,0-11.392,7.533l7.083,22.974Zm-13.5,19.856-7.695-24.952a32.356,32.356,0,0,0-3.692,4.385,24.039,24.039,0,0,0,3.946,31.513Z" transform="translate(-225.358 0)"/></g></svg>