<svg xmlns="http://www.w3.org/2000/svg" width="1909.92" height="1896.707" viewBox="0 0 1909.92 1896.707"><g transform="matrix(0.574, -0.819, 0.819, 0.574, -2117.782, -802.556)"><g transform="translate(-68.562 471.551)" opacity="0.3"><g transform="translate(-20.187 3793.516)"><path d="M-373.413,2726.078a4.145,4.145,0,0,1-3.7-2.266l-11.773-23.1c-6.739-13.227-12.223-36.066-12.223-50.909,0-12.906-8.822-30.221-19.264-37.81l-20.976-15.237a4.154,4.154,0,0,1-.915-5.8,4.144,4.144,0,0,1,5.794-.918l20.976,15.24c12.508,9.091,22.682,29.06,22.682,44.521,0,13.512,5.185,35.1,11.319,47.146l11.77,23.1a4.148,4.148,0,0,1-1.811,5.578A4.128,4.128,0,0,1-373.413,2726.078Z" transform="translate(443.054 -2589.248)" fill="#8abb2a"/></g><g transform="translate(-114.351 3516.314)"><path d="M-313.3,2903.042a4.146,4.146,0,0,1-3.7-2.266l-11.773-23.1c-7.019-13.775-7.019-36.186,0-49.963,5.113-10.039-9.259-60.6-38.055-117.12l-18.053-35.434c-29.535-57.961-59.8-104.473-69.543-111.549-12.508-9.088-22.685-29.06-22.685-44.524v-25.926a4.149,4.149,0,0,1,4.148-4.148,4.148,4.148,0,0,1,4.148,4.148v25.926c0,12.909,8.822,30.224,19.264,37.81,13.634,9.905,47.344,66,72.059,114.5l18.053,35.431c24.621,48.315,46.324,108.422,38.055,124.65-5.86,11.5-5.86,30.934,0,42.436l11.77,23.1a4.148,4.148,0,0,1-1.811,5.578A4.128,4.128,0,0,1-313.3,2903.042Z" transform="translate(477.104 -2489.01)" fill="#8abb2a"/></g><g transform="translate(-112.64 3517.108)"><path d="M-408.554,2625.332a4.143,4.143,0,0,1-3.7-2.265l-11.773-23.1c-6.739-13.225-12.22-36.062-12.22-50.906,0-12.909-8.822-30.224-19.264-37.809l-20.976-15.241,4.878-6.711,20.973,15.237c12.508,9.091,22.685,29.06,22.685,44.524,0,13.514,5.182,35.1,11.316,47.143l11.773,23.1a4.15,4.15,0,0,1-1.814,5.581A4.162,4.162,0,0,1-408.554,2625.332Z" transform="translate(476.485 -2489.297)" fill="#8abb2a"/></g><g transform="translate(-338.49 3283.82)"><path d="M-264.372,2774.259a4.142,4.142,0,0,1-3.7-2.265l-11.77-23.1c-7.021-13.775-7.021-36.191,0-49.966,5.857-11.5,5.857-30.935,0-42.436l-23.542-46.2c-5.464-10.728-44.7-46.471-94.409-82.582s-95.826-62.392-107.717-64.272c-15.268-2.419-33.4-15.593-40.423-29.372l-11.77-23.1a4.149,4.149,0,0,1,1.811-5.58,4.156,4.156,0,0,1,5.581,1.817l11.77,23.1c5.86,11.5,21.581,22.919,34.33,24.941,16.642,2.636,69.656,35.5,111.3,65.752s89.274,70.516,96.923,85.532l23.542,46.2c7.019,13.775,7.019,36.191,0,49.963-5.86,11.5-5.86,30.937,0,42.438l11.77,23.1a4.151,4.151,0,0,1-1.814,5.581A4.156,4.156,0,0,1-264.372,2774.259Z" transform="translate(558.154 -2404.939)" fill="#8abb2a"/></g><g transform="translate(-338.496 3283.812)"><path d="M-437.306,2498.026a4.108,4.108,0,0,1-2.434-.79L-460.716,2482c-12.01-8.732-27.265-26.592-34-39.816-5.86-11.5-21.582-22.92-34.33-24.941l-25.608-4.055a4.148,4.148,0,0,1-3.449-4.746,4.139,4.139,0,0,1,4.749-3.448l25.605,4.057c15.271,2.42,33.4,15.592,40.425,29.369,6.131,12.035,20.553,28.92,31.488,36.866l20.973,15.241a4.149,4.149,0,0,1,.918,5.794A4.136,4.136,0,0,1-437.306,2498.026Z" transform="translate(558.156 -2404.936)" fill="#8abb2a"/></g><g transform="translate(-322.276 2955.989)"><path d="M-450.1,2706.51l-20.973-15.235c-12.508-9.093-22.685-29.062-22.685-44.524,0-12.906-8.822-30.223-19.264-37.809-14.734-10.708-22.685-71-22.685-122.3,0-61.437-5.852-114.193-11.319-124.917-7.019-13.777-7.019-36.192,0-49.97l11.773-23.1a4.152,4.152,0,0,1,5.578-1.816,4.149,4.149,0,0,1,1.811,5.581l-11.77,23.1c-5.86,11.5-5.86,30.935,0,42.436,7.652,15.01,12.223,77.217,12.223,128.684,0,59.87,10.152,108.967,19.264,115.585,12.508,9.089,22.685,29.062,22.685,44.523,0,12.907,8.822,30.224,19.264,37.81l20.976,15.238Z" transform="translate(552.29 -2286.394)" fill="#8abb2a"/></g><g transform="translate(-305.693 2955.989)"><path d="M-542.146,2438.942a4.146,4.146,0,0,1-4.148-4.148v-25.926c0-14.842,5.484-37.682,12.223-50.909,5.86-11.5,5.86-30.932,0-42.436l-11.77-23.1a4.151,4.151,0,0,1,1.811-5.581,4.152,4.152,0,0,1,5.578,1.816l11.773,23.1c7.018,13.778,7.018,36.19,0,49.967-6.134,12.043-11.319,33.632-11.319,47.142v25.926A4.146,4.146,0,0,1-542.146,2438.942Z" transform="translate(546.294 -2286.394)" fill="#8abb2a"/></g><g transform="translate(-305.693 2966.062)"><path d="M-542.146,2432.511a4.146,4.146,0,0,1-4.148-4.148v-25.926c0-15.458,10.177-35.431,22.685-44.518,10.442-7.585,19.264-24.9,19.264-37.81v-25.926a4.148,4.148,0,0,1,4.148-4.147,4.148,4.148,0,0,1,4.148,4.147v25.926c0,15.462-10.177,35.431-22.685,44.521-10.442,7.588-19.264,24.9-19.264,37.806v25.926A4.146,4.146,0,0,1-542.146,2432.511Z" transform="translate(546.294 -2290.036)" fill="#8abb2a"/></g><g transform="translate(-112.53 3160.239)"><path d="M-432.172,2714.551a4.142,4.142,0,0,1-3.7-2.264l-11.772-23.1c-7.649-15.016-12.221-77.223-12.221-128.684,0-61.437-5.852-114.193-11.319-124.921-7.019-13.775-7.019-36.191,0-49.966l11.77-23.1a4.157,4.157,0,0,1,5.581-1.814,4.147,4.147,0,0,1,1.811,5.577l-11.77,23.1c-5.86,11.5-5.86,30.934,0,42.438,7.649,15.011,12.223,77.217,12.223,128.685,0,61.437,5.852,114.191,11.316,124.92l11.77,23.1a4.149,4.149,0,0,1-1.811,5.581A4.17,4.17,0,0,1-432.172,2714.551Z" transform="translate(476.445 -2360.251)" fill="#8abb2a"/></g><g transform="translate(-95.949 3160.239)"><path d="M-466.3,2512.8a4.148,4.148,0,0,1-4.148-4.148v-25.926c0-14.845,5.481-37.682,12.221-50.91,5.863-11.5,5.863-30.934,0-42.436l-11.77-23.1a4.147,4.147,0,0,1,1.814-5.577,4.153,4.153,0,0,1,5.578,1.814l11.77,23.1c7.022,13.774,7.022,36.188,0,49.963-6.134,12.041-11.316,33.63-11.316,47.146v25.926A4.15,4.15,0,0,1-466.3,2512.8Z" transform="translate(470.45 -2360.251)" fill="#8abb2a"/></g><g transform="translate(-296.55 2994.085)"><path d="M-338.237,2618.873a4.148,4.148,0,0,1-4.148-4.148V2588.8c0-15.461,10.174-35.433,22.682-44.524,10.445-7.585,19.267-24.9,19.267-37.806,0-11.261-33.755-48.335-82.189-83.528-49.7-36.11-95.823-62.389-107.714-64.271-15.271-2.418-33.407-15.595-40.425-29.37l-11.77-23.1a4.148,4.148,0,0,1,1.811-5.578,4.157,4.157,0,0,1,5.581,1.814l11.77,23.1c5.86,11.5,21.581,22.919,34.333,24.939,16.642,2.635,69.656,35.5,111.292,65.751,41.5,30.157,85.607,72.032,85.607,90.243,0,15.461-10.177,35.434-22.685,44.52-10.442,7.586-19.264,24.9-19.264,37.81v25.926A4.15,4.15,0,0,1-338.237,2618.873Z" transform="translate(542.988 -2300.17)" fill="#8abb2a"/></g><g transform="translate(-296.555 2994.078)"><path d="M-422.14,2393.258a4.133,4.133,0,0,1-2.434-.792l-20.973-15.24c-12.013-8.728-27.264-26.587-34-39.813-5.86-11.5-21.582-22.923-34.33-24.942l-25.608-4.057a4.147,4.147,0,0,1-3.449-4.745,4.147,4.147,0,0,1,4.748-3.449l25.606,4.057c15.271,2.42,33.406,15.594,40.425,29.368,6.134,12.041,20.553,28.924,31.487,36.867l20.976,15.24a4.151,4.151,0,0,1,.915,5.8A4.14,4.14,0,0,1-422.14,2393.258Z" transform="translate(542.99 -2300.167)" fill="#8abb2a"/></g><g transform="translate(-263.753 2966.058)"><path d="M-445.518,2410.349l-20.976-15.238c-12.508-9.091-22.682-29.062-22.682-44.523,0-12.906-8.822-30.221-19.267-37.807l-20.976-15.24a4.149,4.149,0,0,1-.915-5.8,4.149,4.149,0,0,1,5.794-.918l20.976,15.241c12.508,9.089,22.685,29.062,22.685,44.521,0,12.905,8.819,30.224,19.264,37.809l20.973,15.238Z" transform="translate(531.128 -2290.035)" fill="#8abb2a"/></g><g transform="translate(-85.614 3192.905)"><path d="M-449.361,2693.7a4.15,4.15,0,0,1-3.7-2.265l-11.77-23.1c-8.269-16.226,12.021-73.561,35.309-119.268,27.892-54.742,46.631-104.407,46.631-116.445,0-15.462,10.174-35.434,22.682-44.523l20.976-15.24a4.152,4.152,0,0,1,5.794.918,4.152,4.152,0,0,1-.918,5.8l-20.973,15.24c-10.442,7.586-19.264,24.9-19.264,37.809,0,16.85-24.17,74.354-47.535,120.208-27.179,53.348-40.422,101.7-35.309,111.741l11.77,23.1a4.153,4.153,0,0,1-1.811,5.581A4.18,4.18,0,0,1-449.361,2693.7Z" transform="translate(466.712 -2372.063)" fill="#8abb2a"/></g><g transform="translate(-25.334 3192.903)"><path d="M-440.77,2508.891a4.155,4.155,0,0,1-1.88-.45,4.149,4.149,0,0,1-1.811-5.58l11.77-23.1c6.737-13.23,21.991-31.09,34-39.815,10.445-7.585,19.267-24.9,19.267-37.809v-25.926a4.148,4.148,0,0,1,4.148-4.148,4.149,4.149,0,0,1,4.148,4.148v25.926c0,15.462-10.177,35.434-22.685,44.524-10.935,7.942-25.354,24.822-31.487,36.863l-11.773,23.1A4.138,4.138,0,0,1-440.77,2508.891Z" transform="translate(444.915 -2372.063)" fill="#8abb2a"/></g><g transform="translate(-63.149 2953.783)"><path d="M-416.629,2661.542a4.168,4.168,0,0,1-1.88-.451,4.151,4.151,0,0,1-1.811-5.581l11.77-23.1c7.019-13.778,25.155-26.953,40.423-29.372,12.751-2.019,28.47-13.44,34.333-24.941,5.111-10.036-8.133-58.391-35.312-111.735-27.892-54.743-57.057-99.092-66.8-106.171-12.508-9.085-22.682-29.059-22.682-44.521v-25.926a4.149,4.149,0,0,1,4.148-4.148,4.15,4.15,0,0,1,4.148,4.148v25.926c0,12.909,8.822,30.224,19.261,37.807,13.636,9.908,45.951,63.263,69.316,109.119,23.288,45.71,43.578,103.041,35.309,119.266-7.019,13.78-25.152,26.951-40.423,29.371-12.752,2.023-28.47,13.444-34.33,24.942l-11.773,23.1A4.142,4.142,0,0,1-416.629,2661.542Z" transform="translate(458.589 -2285.596)" fill="#8abb2a"/></g><g transform="translate(-63.151 2953.78)"><path d="M-388.949,2422.424a4.149,4.149,0,0,1-3.7-2.265l-11.767-23.1c-6.742-13.221-12.223-36.058-12.223-50.906,0-12.909-8.822-30.223-19.267-37.809l-20.973-15.24a4.148,4.148,0,0,1-.918-5.794,4.142,4.142,0,0,1,5.794-.918l20.976,15.238c12.508,9.086,22.685,29.058,22.685,44.523,0,13.518,5.182,35.1,11.316,47.143l11.77,23.1a4.149,4.149,0,0,1-1.811,5.581A4.177,4.177,0,0,1-388.949,2422.424Z" transform="translate(458.59 -2285.594)" fill="#8abb2a"/></g><g transform="translate(-14.243 2630.377)"><path d="M-420.171,2628.88a4.148,4.148,0,0,1-3.7-2.265l-11.767-23.1c-7.021-13.774-7.021-36.191,0-49.966,5.857-11.5,5.857-30.934,0-42.436-8.271-16.228,13.432-76.332,38.052-124.647l18.056-35.433c29.532-57.968,49.372-109.792,49.372-121.827,0-15.464,10.177-35.44,22.685-44.524l20.973-15.24a4.147,4.147,0,0,1,5.794.918,4.148,4.148,0,0,1-.915,5.8L-302.6,2191.4c-10.442,7.583-19.264,24.9-19.264,37.81,0,16.847-25.564,77.09-50.279,125.593l-18.053,35.431c-28.8,56.517-43.169,107.084-38.055,117.119,7.019,13.775,7.019,36.191,0,49.964-5.857,11.5-5.857,30.937,0,42.438l11.77,23.1a4.149,4.149,0,0,1-1.811,5.581A4.171,4.171,0,0,1-420.171,2628.88Z" transform="translate(440.904 -2168.651)" fill="#8abb2a"/></g><g transform="translate(72.961 2630.375)"><path d="M-405.226,2305.478a4.184,4.184,0,0,1-1.88-.45,4.15,4.15,0,0,1-1.811-5.581l11.77-23.1c6.739-13.224,21.991-31.086,34-39.814,10.445-7.582,19.267-24.9,19.267-37.809V2172.8a4.148,4.148,0,0,1,4.148-4.148,4.15,4.15,0,0,1,4.148,4.148v25.926c0,15.464-10.177,35.439-22.688,44.524-10.932,7.946-25.351,24.826-31.485,36.866l-11.77,23.1A4.146,4.146,0,0,1-405.226,2305.478Z" transform="translate(409.371 -2168.65)" fill="#8abb2a"/></g><g transform="translate(72.961 2391.259)"><path d="M-405.226,2458.129a4.165,4.165,0,0,1-1.878-.45,4.149,4.149,0,0,1-1.814-5.581l11.77-23.1c7.019-13.777,25.154-26.955,40.425-29.372,11.123-1.759,43.586-43.107,72.383-99.625l18.056-35.434c29.532-57.961,49.372-109.788,49.372-121.826,0-15.464,10.177-35.436,22.685-44.524l20.973-15.24a4.147,4.147,0,0,1,5.794.918,4.148,4.148,0,0,1-.915,5.8l-20.976,15.24c-10.442,7.586-19.264,24.9-19.264,37.81,0,16.85-25.564,77.089-50.276,125.593l-18.056,35.431c-24.618,48.317-60.489,101.207-78.478,104.056-12.749,2.021-28.47,13.443-34.33,24.941l-11.77,23.1A4.146,4.146,0,0,1-405.226,2458.129Z" transform="translate(409.371 -2082.184)" fill="#8abb2a"/></g><g transform="translate(241.88 2391.258)"><path d="M-344.144,2219.013a4.163,4.163,0,0,1-1.88-.451,4.15,4.15,0,0,1-1.811-5.581l11.767-23.1c6.739-13.23,21.994-31.089,34-39.817,10.442-7.585,19.264-24.9,19.264-37.808v-25.926a4.148,4.148,0,0,1,4.148-4.148,4.148,4.148,0,0,1,4.148,4.148v25.926c0,15.464-10.177,35.437-22.685,44.523-10.932,7.943-25.351,24.826-31.487,36.867l-11.77,23.1A4.143,4.143,0,0,1-344.144,2219.013Z" transform="translate(348.289 -2082.184)" fill="#8abb2a"/></g><g transform="translate(241.877 2073.272)"><path d="M-344.145,2422.014a4.181,4.181,0,0,1-1.881-.452,4.15,4.15,0,0,1-1.811-5.581l11.77-23.1c7.019-13.777,25.154-26.952,40.425-29.369,11.358-1.8,32.594-21.534,46.1-48.043,12.729-24.986,23.089-91.387,23.089-148.021,0-61.437-5.854-114.193-11.319-124.92-7.019-13.772-7.019-36.188,0-49.964l11.77-23.1a4.155,4.155,0,0,1,5.578-1.814,4.148,4.148,0,0,1,1.814,5.581l-11.77,23.1c-5.86,11.5-5.86,30.937,0,42.436,7.649,15.014,12.223,77.219,12.223,128.684,0,57.732-10.763,125.822-23.993,151.788-13.739,26.963-36.664,50.011-52.2,52.469-12.749,2.021-28.47,13.443-34.33,24.942l-11.77,23.1A4.15,4.15,0,0,1-344.145,2422.014Z" transform="translate(348.29 -1967.199)" fill="#8abb2a"/></g><g transform="translate(363.712 2073.276)"><path d="M-300.084,2119.748a4.148,4.148,0,0,1-4.148-4.148v-25.926c0-14.845,5.484-37.685,12.223-50.909,5.857-11.5,5.857-30.936,0-42.435l-11.773-23.1a4.153,4.153,0,0,1,1.811-5.58,4.157,4.157,0,0,1,5.581,1.814l11.77,23.1c7.019,13.772,7.019,36.188,0,49.963-6.134,12.043-11.316,33.631-11.316,47.146V2115.6A4.15,4.15,0,0,1-300.084,2119.748Z" transform="translate(304.234 -1967.2)" fill="#8abb2a"/></g><g transform="translate(363.714 1907.115)"><path d="M-300.085,2225.824a4.148,4.148,0,0,1-4.148-4.148V2195.75c0-15.461,10.174-35.431,22.682-44.524,10.445-7.585,19.267-24.894,19.267-37.8,0-18.211,44.106-60.088,85.607-90.242,49.7-36.112,88.942-71.854,94.41-82.582,7.019-13.778,25.152-26.952,40.423-29.372l25.608-4.057a4.149,4.149,0,0,1,4.748,3.451,4.146,4.146,0,0,1-3.449,4.743l-25.608,4.057c-12.749,2.022-28.47,13.443-34.33,24.944-7.652,15.017-55.292,55.279-96.926,85.527-48.434,35.194-82.186,72.267-82.186,83.531,0,15.459-10.177,35.431-22.685,44.518-10.442,7.586-19.264,24.9-19.264,37.81v25.926A4.15,4.15,0,0,1-300.085,2225.824Z" transform="translate(304.233 -1907.115)" fill="#8abb2a"/></g><g transform="translate(531.513 1907.119)"><path d="M-239.4,2000.2a4.145,4.145,0,0,1-3.36-1.709,4.154,4.154,0,0,1,.918-5.8l20.973-15.24c12.01-8.725,33.708-17.713,48.373-20.035,12.749-2.019,28.47-13.441,34.33-24.939l11.77-23.1a4.156,4.156,0,0,1,5.581-1.814,4.153,4.153,0,0,1,1.811,5.581l-11.77,23.1c-7.019,13.778-25.155,26.949-40.425,29.369-13.349,2.115-33.86,10.611-44.792,18.556l-20.973,15.241A4.139,4.139,0,0,1-239.4,2000.2Z" transform="translate(243.556 -1907.117)" fill="#8abb2a"/></g><g transform="translate(531.517 1946.973)"><path d="M-239.4,1974.758a4.141,4.141,0,0,1-3.36-1.71,4.154,4.154,0,0,1,.915-5.8l20.976-15.238c12.505-9.093,34.651-12.594,49.352-7.818,12.279,3.988,31.471.948,41.91-6.64l20.973-15.238a4.153,4.153,0,0,1,5.8.919,4.15,4.15,0,0,1-.918,5.8l-20.976,15.238c-12.505,9.087-34.643,12.588-49.349,7.818-12.281-3.993-31.471-.951-41.91,6.637l-20.976,15.24A4.134,4.134,0,0,1-239.4,1974.758Z" transform="translate(243.555 -1921.528)" fill="#8abb2a"/></g><g transform="translate(340.175 2196.847)"><path d="M-308.6,2242.608a4.171,4.171,0,0,1-1.88-.451,4.148,4.148,0,0,1-1.811-5.578l11.77-23.1c7.649-15.014,55.287-55.276,96.926-85.533,49.7-36.108,88.945-71.852,94.41-82.579,7.019-13.777,25.154-26.955,40.425-29.372l25.605-4.057a4.149,4.149,0,0,1,4.748,3.449,4.151,4.151,0,0,1-3.448,4.745l-25.605,4.057c-12.751,2.019-28.473,13.441-34.333,24.942-7.649,15.016-55.29,55.278-96.926,85.53-49.7,36.117-88.945,71.857-94.41,82.582l-11.77,23.1A4.149,4.149,0,0,1-308.6,2242.608Z" transform="translate(312.745 -2011.884)" fill="#8abb2a"/></g><g transform="translate(489.567 2196.849)"><path d="M-254.573,2104.971a4.143,4.143,0,0,1-3.36-1.709,4.154,4.154,0,0,1,.918-5.8l20.976-15.24c12.008-8.725,33.705-17.713,48.37-20.036,12.749-2.022,28.47-13.44,34.33-24.941l11.77-23.1a4.156,4.156,0,0,1,5.581-1.814,4.147,4.147,0,0,1,1.811,5.578l-11.77,23.1c-7.019,13.775-25.154,26.952-40.425,29.369-13.349,2.113-33.86,10.611-44.792,18.556l-20.973,15.241A4.141,4.141,0,0,1-254.573,2104.971Z" transform="translate(258.724 -2011.885)" fill="#8abb2a"/></g><g transform="translate(489.571 1936.897)"><path d="M-254.57,2270.92a4.139,4.139,0,0,1-3.36-1.709,4.151,4.151,0,0,1,.918-5.8l20.973-15.241c12.508-9.089,34.648-12.594,49.352-7.815,12.276,3.982,31.471.946,41.91-6.64,9.112-6.621,19.267-55.719,19.267-115.584,0-61.437-5.852-114.194-11.319-124.921-7.019-13.777-7.019-36.191,0-49.966l11.77-23.1a4.156,4.156,0,0,1,5.581-1.814,4.148,4.148,0,0,1,1.811,5.577l-11.77,23.1c-5.86,11.5-5.86,30.932,0,42.433,7.649,15.014,12.223,77.22,12.223,128.687,0,51.3-7.951,111.591-22.685,122.3-12.505,9.087-34.643,12.591-49.352,7.818-12.276-3.993-31.468-.948-41.91,6.64l-20.976,15.241A4.138,4.138,0,0,1-254.57,2270.92Z" transform="translate(258.723 -1917.884)" fill="#8abb2a"/></g><g transform="translate(622.782 1936.9)"><path d="M-206.4,2070.431a4.148,4.148,0,0,1-4.148-4.148v-25.926c0-14.85,5.484-37.685,12.223-50.909,5.857-11.5,5.857-30.934,0-42.436l-11.773-23.1a4.148,4.148,0,0,1,1.814-5.578,4.153,4.153,0,0,1,5.578,1.814l11.772,23.1c7.019,13.777,7.019,36.192,0,49.969-6.136,12.038-11.319,33.625-11.319,47.143v25.926A4.149,4.149,0,0,1-206.4,2070.431Z" transform="translate(210.553 -1917.886)" fill="#8abb2a"/></g><g transform="translate(622.784 1946.967)"><path d="M-206.4,2064.007a4.148,4.148,0,0,1-4.148-4.148v-25.926c0-15.462,10.174-35.434,22.682-44.524,10.445-7.586,19.267-24.9,19.267-37.809v-25.926a4.148,4.148,0,0,1,4.148-4.148,4.15,4.15,0,0,1,4.148,4.148V1951.6c0,15.464-10.177,35.436-22.685,44.523-10.442,7.586-19.264,24.9-19.264,37.809v25.926A4.15,4.15,0,0,1-206.4,2064.007Z" transform="translate(210.552 -1921.526)" fill="#8abb2a"/></g><g transform="translate(340.178 2316.227)"><path d="M-308.6,2166.394a4.157,4.157,0,0,1-1.881-.451,4.147,4.147,0,0,1-1.814-5.578l11.77-23.1c8.271-16.227,66.581-33.514,117.247-41.537C-122.59,2086.113-71.4,2072.081-61.659,2065c12.508-9.084,34.648-12.589,49.352-7.815L12.35,2065.2a4.149,4.149,0,0,1-2.564,7.893l-24.659-8.015c-12.27-3.984-31.471-.946-41.91,6.64-13.631,9.9-74.357,24.151-125.192,32.2-59.134,9.367-106.041,27.074-111.154,37.11l-11.77,23.1A4.142,4.142,0,0,1-308.6,2166.394Z" transform="translate(312.744 -2055.052)" fill="#8abb2a"/></g><g transform="translate(517.366 2326.167)"><path d="M-154.974,2091.342a49.025,49.025,0,0,1-14.961-2.135c-12.851-4.175-34.991-5.921-48.332-3.8l-25.608,4.057a4.151,4.151,0,0,1-4.746-3.448,4.149,4.149,0,0,1,3.449-4.746l25.605-4.057c14.662-2.317,38.077-.484,52.2,4.1,12.279,4,31.471.952,41.913-6.636l20.973-15.24a4.15,4.15,0,0,1,5.794.918,4.151,4.151,0,0,1-.915,5.8l-20.976,15.24C-129.294,2087.723-142.681,2091.342-154.974,2091.342Z" transform="translate(248.672 -2058.647)" fill="#8abb2a"/></g><g transform="translate(517.368 2102.83)"><path d="M-136.839,2257.014c-14.369,0-31.609-6.46-41.07-15.921-9.126-9.131-27.613-15.135-40.356-13.113l-25.608,4.057a4.149,4.149,0,0,1-4.745-3.449,4.145,4.145,0,0,1,3.446-4.746l25.608-4.057c15.276-2.434,36.587,4.505,47.521,15.442,9.129,9.126,27.624,15.125,40.359,13.111,11.123-1.759,42.458-40.9,69.639-94.244,27.892-54.741,46.631-104.406,46.631-116.444,0-15.465,10.174-35.437,22.682-44.524l20.976-15.24,4.878,6.715-20.976,15.24c-10.442,7.585-19.264,24.9-19.264,37.809,0,16.853-24.167,74.354-47.535,120.211-23.291,45.707-57.748,95.822-75.732,98.671A41.4,41.4,0,0,1-136.839,2257.014Z" transform="translate(248.671 -1977.887)" fill="#8abb2a"/></g><g transform="translate(727.084 2102.037)"><path d="M-168.689,2114.429a4.183,4.183,0,0,1-1.883-.451,4.152,4.152,0,0,1-1.811-5.581l11.77-23.1c6.739-13.228,21.991-31.089,34-39.817,10.445-7.583,19.267-24.9,19.267-37.809v-25.926a4.15,4.15,0,0,1,4.148-4.148,4.148,4.148,0,0,1,4.148,4.148v25.926c0,15.464-10.177,35.437-22.685,44.524-10.935,7.945-25.351,24.825-31.487,36.866l-11.77,23.1A4.148,4.148,0,0,1-168.689,2114.429Z" transform="translate(172.837 -1977.6)" fill="#8abb2a"/></g><g transform="translate(727.084 2130.059)"><path d="M-168.689,2096.54a4.182,4.182,0,0,1-1.883-.451,4.152,4.152,0,0,1-1.811-5.581l11.77-23.1c7.021-13.777,25.155-26.949,40.425-29.369,12.751-2.021,28.47-13.442,34.33-24.944l11.77-23.1a4.156,4.156,0,0,1,5.581-1.816,4.152,4.152,0,0,1,1.811,5.58l-11.77,23.1c-7.019,13.78-25.154,26.952-40.425,29.372-12.749,2.021-28.47,13.442-34.33,24.942l-11.77,23.1A4.147,4.147,0,0,1-168.689,2096.54Z" transform="translate(172.837 -1987.733)" fill="#8abb2a"/></g><g transform="translate(233.633 3793.456)"><path d="M-347.126,2726.055a4.171,4.171,0,0,1-1.88-.451,4.15,4.15,0,0,1-1.811-5.581l11.767-23.1c6.737-13.228,21.994-31.086,34-39.816,10.442-7.586,19.264-24.9,19.264-37.809v-25.926a4.149,4.149,0,0,1,4.148-4.148,4.147,4.147,0,0,1,4.148,4.148V2619.3c0,15.464-10.177,35.436-22.682,44.523-10.937,7.945-25.356,24.828-31.49,36.866l-11.77,23.1A4.142,4.142,0,0,1-347.126,2726.055Z" transform="translate(351.271 -2589.226)" fill="#8abb2a"/></g><g transform="translate(233.631 3554.343)"><path d="M-347.124,2878.7a4.194,4.194,0,0,1-1.883-.451,4.154,4.154,0,0,1-1.811-5.581l11.77-23.1c7.022-13.777,25.154-26.95,40.425-29.369,11.123-1.762,43.586-43.111,72.386-99.628l18.053-35.432c29.532-57.96,49.372-109.79,49.372-121.828,0-15.462,10.177-35.434,22.685-44.524l20.973-15.235a4.146,4.146,0,0,1,5.8.916,4.148,4.148,0,0,1-.918,5.792l-20.976,15.242c-10.442,7.586-19.264,24.9-19.264,37.81,0,16.855-25.561,77.092-50.276,125.593l-18.053,35.431c-24.621,48.318-60.494,101.207-78.481,104.056-12.749,2.021-28.47,13.443-34.33,24.941l-11.77,23.1A4.149,4.149,0,0,1-347.124,2878.7Z" transform="translate(351.272 -2502.761)" fill="#8abb2a"/></g><g transform="translate(402.55 3554.341)"><path d="M-286.045,2639.59a4.165,4.165,0,0,1-1.881-.451,4.149,4.149,0,0,1-1.811-5.58l11.767-23.1c6.742-13.23,22-31.089,34-39.813,10.442-7.586,19.264-24.9,19.264-37.81v-25.926a4.15,4.15,0,0,1,4.148-4.148,4.148,4.148,0,0,1,4.148,4.148v25.926c0,15.463-10.174,35.435-22.682,44.525-10.932,7.939-25.351,24.823-31.49,36.863l-11.77,23.1A4.143,4.143,0,0,1-286.045,2639.59Z" transform="translate(290.19 -2502.761)" fill="#8abb2a"/></g><g transform="translate(403.003 3236.355)"><path d="M-282.637,2840.323l-7.389-3.767,11.767-23.1c7.021-13.779,25.154-26.951,40.425-29.37,11.358-1.8,32.594-21.532,46.1-48.042,12.729-24.985,23.086-91.383,23.086-148.02,0-61.437-5.852-114.194-11.319-124.921-7.019-13.775-7.019-36.191,0-49.963l11.773-23.1a4.155,4.155,0,0,1,5.578-1.814,4.153,4.153,0,0,1,1.814,5.582l-11.772,23.1c-5.857,11.5-5.857,30.935,0,42.436,7.652,15.014,12.223,77.219,12.223,128.685,0,57.731-10.763,125.822-23.993,151.785-13.739,26.962-36.664,50.01-52.192,52.471-12.749,2.019-28.473,13.44-34.333,24.938Z" transform="translate(290.026 -2387.775)" fill="#8abb2a"/></g><g transform="translate(524.384 3236.359)"><path d="M-241.986,2540.322a4.15,4.15,0,0,1-4.148-4.148v-25.926c0-14.848,5.484-37.685,12.223-50.906,5.86-11.5,5.86-30.935,0-42.438l-11.77-23.1a4.15,4.15,0,0,1,1.811-5.581,4.158,4.158,0,0,1,5.581,1.814l11.77,23.1c7.019,13.774,7.019,36.191,0,49.966-6.137,12.041-11.319,33.627-11.319,47.143v25.926A4.148,4.148,0,0,1-241.986,2540.322Z" transform="translate(246.134 -2387.777)" fill="#8abb2a"/></g><g transform="translate(524.384 3070.201)"><path d="M-241.986,2646.4a4.15,4.15,0,0,1-4.148-4.148v-25.926c0-15.465,10.177-35.434,22.685-44.521,10.442-7.588,19.264-24.9,19.264-37.81,0-18.213,44.106-60.087,85.607-90.239,49.7-36.111,88.942-71.858,94.41-82.582,7.021-13.777,25.157-26.955,40.425-29.372l25.605-4.055a4.148,4.148,0,1,1,1.3,8.194L17.557,2340c-12.749,2.022-28.47,13.442-34.333,24.941-7.652,15.02-55.29,55.279-96.923,85.534-48.434,35.187-82.189,72.257-82.189,83.524,0,15.462-10.177,35.431-22.682,44.521-10.445,7.585-19.267,24.9-19.267,37.809v25.926A4.148,4.148,0,0,1-241.986,2646.4Z" transform="translate(246.134 -2327.693)" fill="#8abb2a"/></g><g transform="translate(692.182 3070.199)"><path d="M-181.306,2420.779a4.134,4.134,0,0,1-3.357-1.709,4.148,4.148,0,0,1,.915-5.8l20.976-15.238c12.01-8.724,33.708-17.712,48.37-20.032,12.749-2.022,28.47-13.446,34.33-24.945l11.77-23.1a4.156,4.156,0,0,1,5.581-1.813,4.149,4.149,0,0,1,1.811,5.581l-11.77,23.1c-7.019,13.777-25.152,26.952-40.423,29.372-13.349,2.116-33.863,10.611-44.795,18.553l-20.973,15.24A4.144,4.144,0,0,1-181.306,2420.779Z" transform="translate(185.457 -2327.693)" fill="#8abb2a"/></g><g transform="translate(692.185 3110.052)"><path d="M-181.3,2395.334a4.134,4.134,0,0,1-3.357-1.709,4.148,4.148,0,0,1,.915-5.8l20.976-15.237c12.508-9.088,34.648-12.594,49.352-7.816,12.273,3.988,31.471.946,41.91-6.64l20.976-15.24a4.148,4.148,0,0,1,5.794.918,4.151,4.151,0,0,1-.918,5.8l-20.973,15.24c-12.508,9.081-34.648,12.589-49.352,7.815-12.279-3.993-31.471-.951-41.913,6.637l-20.973,15.24A4.124,4.124,0,0,1-181.3,2395.334Z" transform="translate(185.456 -2342.104)" fill="#8abb2a"/></g><g transform="translate(500.845 3359.931)"><path d="M-250.5,2663.183a4.145,4.145,0,0,1-1.883-.451,4.149,4.149,0,0,1-1.811-5.578l11.77-23.1c7.652-15.016,55.29-55.276,96.926-85.53,49.7-36.111,88.942-71.857,94.41-82.582,7.019-13.777,25.154-26.951,40.425-29.372l25.605-4.055a4.148,4.148,0,0,1,1.3,8.194l-25.605,4.054c-12.749,2.019-28.47,13.44-34.33,24.941-7.652,15.017-55.29,55.281-96.926,85.532-49.7,36.112-88.942,71.858-94.41,82.582l-11.77,23.1A4.143,4.143,0,0,1-250.5,2663.183Z" transform="translate(254.646 -2432.461)" fill="#8abb2a"/></g><g transform="translate(650.235 3359.931)"><path d="M-196.473,2525.545a4.144,4.144,0,0,1-3.36-1.71,4.151,4.151,0,0,1,.918-5.8l20.973-15.24c12.01-8.722,33.711-17.711,48.37-20.033,12.751-2.019,28.47-13.44,34.33-24.941l11.773-23.1a4.155,4.155,0,0,1,5.578-1.814,4.15,4.15,0,0,1,1.814,5.578l-11.773,23.1c-7.019,13.777-25.152,26.952-40.423,29.372-13.349,2.115-33.86,10.611-44.792,18.553l-20.976,15.24A4.133,4.133,0,0,1-196.473,2525.545Z" transform="translate(200.625 -2432.462)" fill="#8abb2a"/></g><g transform="translate(650.238 3099.977)"><path d="M-196.472,2691.5a4.143,4.143,0,0,1-3.36-1.709,4.15,4.15,0,0,1,.918-5.8l20.976-15.241c12.511-9.09,34.648-12.593,49.352-7.814,12.27,3.985,31.468.951,41.91-6.638,9.112-6.621,19.264-55.721,19.264-115.587,0-61.437-5.852-114.194-11.319-124.921-7.019-13.775-7.019-36.189,0-49.963l11.77-23.1a4.155,4.155,0,0,1,5.581-1.814,4.146,4.146,0,0,1,1.811,5.577l-11.77,23.1c-5.86,11.5-5.86,30.931,0,42.436,7.652,15.011,12.223,77.216,12.223,128.685,0,51.3-7.951,111.591-22.685,122.3-12.508,9.085-34.648,12.588-49.349,7.819-12.276-4-31.471-.949-41.913,6.637l-20.976,15.24A4.132,4.132,0,0,1-196.472,2691.5Z" transform="translate(200.624 -2338.46)" fill="#8abb2a"/></g><g transform="translate(783.449 3099.979)"><path d="M-148.3,2491.009a4.148,4.148,0,0,1-4.148-4.148v-25.926c0-14.845,5.484-37.682,12.223-50.906,5.857-11.505,5.857-30.937,0-42.436L-152,2344.49a4.149,4.149,0,0,1,1.814-5.578,4.151,4.151,0,0,1,5.578,1.814l11.773,23.1c7.019,13.771,7.019,36.186,0,49.963-6.137,12.041-11.319,33.628-11.319,47.143v25.926A4.148,4.148,0,0,1-148.3,2491.009Z" transform="translate(152.455 -2338.461)" fill="#8abb2a"/></g><g transform="translate(783.451 3110.048)"><path d="M-148.306,2484.583a4.148,4.148,0,0,1-4.148-4.148v-25.926c0-15.462,10.177-35.434,22.685-44.524,10.442-7.583,19.264-24.9,19.264-37.809V2346.25a4.148,4.148,0,0,1,4.148-4.148,4.149,4.149,0,0,1,4.148,4.148v25.926c0,15.464-10.177,35.439-22.685,44.523-10.442,7.586-19.264,24.9-19.264,37.81v25.926A4.148,4.148,0,0,1-148.306,2484.583Z" transform="translate(152.454 -2342.102)" fill="#8abb2a"/></g><g transform="translate(500.848 3479.31)"><path d="M-250.5,2586.968a4.14,4.14,0,0,1-1.881-.451,4.148,4.148,0,0,1-1.811-5.578l11.77-23.1c8.269-16.227,66.581-33.514,117.244-41.537,60.688-9.612,111.879-23.646,121.616-30.724,12.508-9.085,34.648-12.583,49.352-7.816l24.657,8.015a4.148,4.148,0,1,1-2.564,7.89l-24.659-8.011c-12.273-3.991-31.468-.949-41.908,6.637-13.631,9.9-74.36,24.151-125.195,32.2-59.134,9.364-106.038,27.073-111.152,37.11l-11.772,23.1A4.14,4.14,0,0,1-250.5,2586.968Z" transform="translate(254.645 -2475.629)" fill="#8abb2a"/></g><g transform="translate(678.033 3489.251)"><path d="M-96.878,2511.923a49.005,49.005,0,0,1-14.958-2.138c-12.848-4.179-34.983-5.917-48.332-3.806l-25.605,4.057a4.153,4.153,0,0,1-4.748-3.448,4.148,4.148,0,0,1,3.448-4.745l25.608-4.057c14.66-2.324,38.075-.482,52.2,4.109,12.273,3.982,31.468.942,41.91-6.643l20.973-15.237a4.153,4.153,0,0,1,5.8.918,4.151,4.151,0,0,1-.918,5.793l-20.973,15.24C-71.2,2508.3-84.586,2511.92-96.878,2511.923Z" transform="translate(190.574 -2479.224)" fill="#8abb2a"/></g><g transform="translate(678.035 3265.125)"><path d="M-78.744,2678.093c-14.367,0-31.6-6.46-41.067-15.921-9.126-9.123-27.607-15.12-40.356-13.111l-25.608,4.055a4.147,4.147,0,0,1-4.745-3.449,4.146,4.146,0,0,1,3.448-4.745l25.605-4.055c15.29-2.434,36.6,4.51,47.521,15.439,9.129,9.126,27.624,15.135,40.356,13.111,12.751-2.019,28.473-13.441,34.333-24.939l47.079-92.4c18.9-37.082,34.858-79.828,34.858-93.345,0-15.462,10.177-35.434,22.685-44.524l20.976-15.234a4.148,4.148,0,1,1,4.875,6.712l-20.973,15.237c-10.445,7.585-19.267,24.9-19.267,37.809,0,15.1-15.708,57.756-35.763,97.108l-47.082,92.4c-7.016,13.777-25.149,26.949-40.423,29.368A40.819,40.819,0,0,1-78.744,2678.093Z" transform="translate(190.573 -2398.179)" fill="#8abb2a"/></g><g transform="translate(888.203 3265.123)"><path d="M-107.183,2532.742l-7.392-3.767,11.77-23.1c6.742-13.231,22-31.09,34-39.814,10.442-7.586,19.264-24.9,19.264-37.81v-25.926a4.15,4.15,0,0,1,4.148-4.148,4.149,4.149,0,0,1,4.148,4.148v25.926c0,15.462-10.174,35.434-22.682,44.524-10.932,7.94-25.351,24.822-31.487,36.863Z" transform="translate(114.575 -2398.178)" fill="#8abb2a"/></g><g transform="translate(826.393 2979.812)"><path d="M-71.424,2717.145a4.171,4.171,0,0,1-1.881-.451,4.149,4.149,0,0,1-1.811-5.581l11.77-23.1c7.019-13.781,25.155-26.953,40.423-29.372,12.751-2.021,28.473-13.443,34.333-24.942,5.113-10.036-9.259-60.6-38.055-117.119L-44.7,2481.15c-29.538-57.961-59.806-104.473-69.543-111.547-12.508-9.089-22.685-29.062-22.685-44.521v-25.926a4.147,4.147,0,0,1,4.148-4.148,4.146,4.146,0,0,1,4.148,4.148v25.926c0,12.906,8.822,30.221,19.267,37.806,13.628,9.9,47.339,65.992,72.056,114.5l18.053,35.431C5.365,2561.135,27.068,2621.243,18.8,2637.47c-7.019,13.775-25.155,26.95-40.425,29.37-12.749,2.019-28.47,13.44-34.33,24.941l-11.77,23.1A4.148,4.148,0,0,1-71.424,2717.145Z" transform="translate(136.926 -2295.008)" fill="#8abb2a"/></g><g transform="translate(828.102 2980.6)"><path d="M-68.378,2431.328a4.146,4.146,0,0,1-3.7-2.265l-11.77-23.1c-6.739-13.221-12.223-36.059-12.223-50.906,0-12.909-8.822-30.223-19.264-37.809L-136.308,2302l4.878-6.712,20.976,15.237c12.505,9.091,22.682,29.061,22.682,44.524,0,13.518,5.182,35.1,11.319,47.143l11.77,23.1a4.151,4.151,0,0,1-1.811,5.581A4.194,4.194,0,0,1-68.378,2431.328Z" transform="translate(136.308 -2295.293)" fill="#8abb2a"/></g><g transform="translate(732.229 2702.601)"><path d="M-7.173,2608.8a4.144,4.144,0,0,1-3.7-2.264l-11.77-23.1c-7.019-13.775-7.019-36.191,0-49.964,5.86-11.5,5.86-30.937,0-42.438l-58.851-115.5c-27.892-54.74-57.059-99.092-66.8-106.169-12.508-9.086-22.685-29.06-22.685-44.521v-25.926a4.149,4.149,0,0,1,4.148-4.148,4.148,4.148,0,0,1,4.148,4.148v25.926c0,12.909,8.822,30.221,19.267,37.806,13.631,9.909,45.948,63.26,69.313,109.117l58.849,115.5c7.021,13.775,7.021,36.191,0,49.966-5.857,11.5-5.857,30.934,0,42.436l11.773,23.1a4.151,4.151,0,0,1-1.811,5.581A4.181,4.181,0,0,1-7.173,2608.8Z" transform="translate(170.976 -2194.767)" fill="#8abb2a"/></g><g transform="translate(733.941 2703.389)"><path d="M-102.427,2331.089a4.149,4.149,0,0,1-3.7-2.264l-11.77-23.1c-6.739-13.222-12.223-36.059-12.223-50.906,0-12.91-8.822-30.224-19.264-37.81l-20.973-15.24,4.876-6.714,20.976,15.24c12.508,9.087,22.682,29.06,22.682,44.524,0,13.518,5.182,35.1,11.319,47.143l11.77,23.1a4.149,4.149,0,0,1-1.811,5.581A4.178,4.178,0,0,1-102.427,2331.089Z" transform="translate(170.357 -2195.052)" fill="#8abb2a"/></g><g transform="translate(508.09 2470.105)"><path d="M41.755,2480.013a4.149,4.149,0,0,1-3.7-2.265l-11.77-23.1c-7.019-13.775-7.019-36.192,0-49.967,5.221-10.245,1.737-39.023-11.77-65.535-12.729-24.983-60.361-72.391-106.182-105.678-49.7-36.114-95.823-62.392-107.714-64.275-15.268-2.419-33.4-15.592-40.423-29.372l-11.77-23.1a4.149,4.149,0,0,1,1.811-5.581,4.157,4.157,0,0,1,5.581,1.814l11.767,23.1c5.863,11.5,21.584,22.923,34.333,24.941,16.642,2.639,69.653,35.5,111.293,65.755,46.706,33.935,95.469,82.664,108.7,108.629,13.739,26.963,18.907,59.059,11.77,73.063-5.86,11.5-5.86,30.937,0,42.438l11.77,23.1a4.149,4.149,0,0,1-1.811,5.581A4.191,4.191,0,0,1,41.755,2480.013Z" transform="translate(252.026 -2110.695)" fill="#8abb2a"/></g><g transform="translate(508.085 2470.097)"><path d="M-131.178,2203.782a4.132,4.132,0,0,1-2.434-.791l-20.976-15.241c-12.008-8.724-27.262-26.581-34-39.811-5.863-11.5-21.582-22.922-34.33-24.944l-25.608-4.055a4.148,4.148,0,0,1-3.449-4.746,4.142,4.142,0,0,1,4.748-3.449l25.605,4.055c15.271,2.419,33.4,15.594,40.423,29.375,6.136,12.041,20.558,28.924,31.49,36.863l20.973,15.238a4.152,4.152,0,0,1,.918,5.8A4.152,4.152,0,0,1-131.178,2203.782Z" transform="translate(252.028 -2110.692)" fill="#8abb2a"/></g><g transform="translate(524.305 2142.272)"><path d="M-141.536,2413.06a4.126,4.126,0,0,1-2.434-.791l-20.976-15.24c-12.508-9.09-22.685-29.059-22.685-44.521,0-12.906-8.822-30.224-19.264-37.81-14.734-10.705-22.685-71-22.685-122.3,0-61.439-5.852-114.193-11.319-124.92-7.019-13.775-7.019-36.192,0-49.964l11.773-23.1a4.151,4.151,0,0,1,5.578-1.816,4.149,4.149,0,0,1,1.811,5.58l-11.77,23.1c-5.86,11.5-5.86,30.934,0,42.435,7.652,15.011,12.223,77.217,12.223,128.685,0,59.87,10.152,108.967,19.264,115.585,12.508,9.09,22.685,29.062,22.685,44.524,0,12.906,8.822,30.221,19.267,37.809l20.973,15.238a4.152,4.152,0,0,1,.918,5.8A4.145,4.145,0,0,1-141.536,2413.06Z" transform="translate(246.162 -1992.15)" fill="#8abb2a"/></g><g transform="translate(540.888 2142.277)"><path d="M-236.018,2144.7a4.148,4.148,0,0,1-4.148-4.148v-25.926c0-14.845,5.484-37.682,12.223-50.906,5.86-11.5,5.86-30.935,0-42.439l-11.77-23.1a4.151,4.151,0,0,1,1.811-5.581,4.156,4.156,0,0,1,5.578,1.813l11.772,23.1c7.019,13.775,7.019,36.191,0,49.966-6.137,12.043-11.319,33.631-11.319,47.143v25.926A4.148,4.148,0,0,1-236.018,2144.7Z" transform="translate(240.166 -1992.151)" fill="#8abb2a"/></g><g transform="translate(540.888 2152.345)"><path d="M-236.018,2138.27a4.148,4.148,0,0,1-4.148-4.148V2108.2c0-15.461,10.177-35.431,22.685-44.521,10.442-7.585,19.264-24.9,19.264-37.809V1999.94a4.147,4.147,0,0,1,4.148-4.147,4.147,4.147,0,0,1,4.148,4.147v25.926c0,15.464-10.177,35.437-22.685,44.521-10.442,7.589-19.264,24.9-19.264,37.809v25.926A4.148,4.148,0,0,1-236.018,2138.27Z" transform="translate(240.166 -1995.792)" fill="#8abb2a"/></g><g transform="translate(734.05 2346.522)"><path d="M-126.044,2420.311a4.143,4.143,0,0,1-3.7-2.268l-11.77-23.1c-7.652-15.013-12.223-77.219-12.223-128.684,0-61.438-5.855-114.194-11.319-124.921-7.019-13.778-7.019-36.192,0-49.967l11.77-23.1a4.155,4.155,0,0,1,5.581-1.814,4.149,4.149,0,0,1,1.811,5.579l-11.77,23.1c-5.86,11.5-5.86,30.932,0,42.433,7.649,15.013,12.223,77.22,12.223,128.688,0,61.437,5.852,114.193,11.316,124.921l11.773,23.1a4.153,4.153,0,0,1-1.811,5.58A4.18,4.18,0,0,1-126.044,2420.311Z" transform="translate(170.318 -2066.007)" fill="#8abb2a"/></g><g transform="translate(750.632 2346.526)"><path d="M-160.172,2218.554a4.147,4.147,0,0,1-4.148-4.147V2188.48c0-14.845,5.484-37.682,12.223-50.909,5.857-11.5,5.857-30.934,0-42.435l-11.772-23.1a4.15,4.15,0,0,1,1.814-5.578,4.154,4.154,0,0,1,5.578,1.814l11.77,23.1c7.021,13.777,7.021,36.192,0,49.97-6.134,12.041-11.316,33.627-11.316,47.142v25.926A4.149,4.149,0,0,1-160.172,2218.554Z" transform="translate(164.322 -2066.009)" fill="#8abb2a"/></g><g transform="translate(550.031 2180.373)"><path d="M-32.109,2324.627a4.147,4.147,0,0,1-4.148-4.148v-25.926c0-15.461,10.174-35.434,22.682-44.523,10.445-7.586,19.267-24.9,19.267-37.809,0-11.264-33.755-48.334-82.189-83.525-49.7-36.114-95.823-62.391-107.714-64.272-15.271-2.419-33.4-15.594-40.422-29.372l-11.773-23.1a4.148,4.148,0,0,1,1.811-5.578,4.158,4.158,0,0,1,5.581,1.814l11.77,23.1c5.863,11.5,21.582,22.923,34.33,24.944,16.645,2.635,69.656,35.5,111.3,65.75,41.5,30.155,85.607,72.027,85.607,90.24,0,15.462-10.177,35.434-22.685,44.523-10.442,7.585-19.264,24.9-19.264,37.809v25.926A4.149,4.149,0,0,1-32.109,2324.627Z" transform="translate(236.86 -2005.927)" fill="#8abb2a"/></g><g transform="translate(550.028 2180.365)"><path d="M-116.014,2099.012a4.145,4.145,0,0,1-2.434-.791l-20.973-15.241c-12.01-8.725-27.262-26.581-34-39.814-5.86-11.5-21.582-22.92-34.33-24.938l-25.605-4.057a4.149,4.149,0,0,1-3.448-4.746,4.147,4.147,0,0,1,4.748-3.449l25.605,4.057c15.268,2.42,33.4,15.594,40.423,29.369,6.137,12.044,20.556,28.924,31.487,36.863l20.976,15.241a4.148,4.148,0,0,1,.915,5.8A4.142,4.142,0,0,1-116.014,2099.012Z" transform="translate(236.861 -2005.924)" fill="#8abb2a"/></g><g transform="translate(582.831 2152.343)"><path d="M-136.958,2116.9a4.14,4.14,0,0,1-2.434-.791l-20.973-15.24c-12.508-9.087-22.685-29.059-22.685-44.521,0-12.909-8.822-30.221-19.264-37.809l-20.976-15.238a4.148,4.148,0,0,1-.915-5.8,4.144,4.144,0,0,1,5.794-.918l20.973,15.24c12.508,9.087,22.685,29.057,22.685,44.521,0,12.909,8.822,30.221,19.264,37.807l20.976,15.24a4.148,4.148,0,0,1,.915,5.8A4.147,4.147,0,0,1-136.958,2116.9Z" transform="translate(224.999 -1995.791)" fill="#8abb2a"/></g><g transform="translate(760.967 2379.189)"><path d="M-143.233,2399.456a4.14,4.14,0,0,1-3.7-2.268l-11.772-23.1c-8.269-16.228,12.021-73.563,35.312-119.268,27.892-54.741,46.628-104.406,46.628-116.444,0-15.465,10.177-35.437,22.685-44.524l20.973-15.24a4.146,4.146,0,0,1,5.794.918,4.148,4.148,0,0,1-.915,5.8l-20.976,15.24c-10.442,7.586-19.264,24.9-19.264,37.811,0,16.85-24.167,74.354-47.533,120.208-27.182,53.343-40.425,101.7-35.312,111.741l11.77,23.1a4.15,4.15,0,0,1-1.811,5.581A4.164,4.164,0,0,1-143.233,2399.456Z" transform="translate(160.584 -2077.819)" fill="#8abb2a"/></g><g transform="translate(821.247 2379.19)"><path d="M-134.639,2214.646a4.177,4.177,0,0,1-1.88-.45,4.152,4.152,0,0,1-1.814-5.581l11.77-23.1c6.739-13.227,21.994-31.086,34-39.814,10.442-7.585,19.264-24.9,19.264-37.807v-25.926a4.148,4.148,0,0,1,4.148-4.148A4.148,4.148,0,0,1-65,2081.968v25.926c0,15.462-10.177,35.435-22.685,44.521-10.932,7.943-25.351,24.827-31.487,36.867l-11.77,23.1A4.138,4.138,0,0,1-134.639,2214.646Z" transform="translate(138.787 -2077.82)" fill="#8abb2a"/></g><g transform="translate(783.432 2140.07)"><path d="M-110.5,2367.3a4.163,4.163,0,0,1-1.878-.451,4.15,4.15,0,0,1-1.814-5.581l11.773-23.1C-95.4,2324.39-77.269,2311.213-62,2308.8c12.749-2.019,28.47-13.44,34.33-24.939,5.113-10.039-8.13-58.4-35.312-111.738-27.889-54.743-57.057-99.095-66.8-106.169-12.508-9.09-22.685-29.062-22.685-44.524V1995.5a4.148,4.148,0,0,1,4.148-4.148,4.148,4.148,0,0,1,4.148,4.148v25.926c0,12.906,8.822,30.224,19.264,37.809,13.634,9.906,45.951,63.257,69.313,109.116,23.291,45.708,43.581,103.041,35.312,119.269-7.019,13.777-25.154,26.951-40.423,29.369-12.752,2.021-28.47,13.443-34.33,24.942l-11.772,23.1A4.14,4.14,0,0,1-110.5,2367.3Z" transform="translate(152.461 -1991.353)" fill="#8abb2a"/></g><g transform="translate(785.141 2140.858)"><path d="M-83.913,2127.676a4.139,4.139,0,0,1-3.7-2.267l-11.77-23.1c-6.739-13.222-12.223-36.059-12.223-50.906,0-12.907-8.822-30.224-19.264-37.809l-20.976-15.241,4.878-6.715,20.973,15.24c12.508,9.09,22.685,29.063,22.685,44.524,0,13.515,5.182,35.1,11.319,47.143l11.77,23.1a4.151,4.151,0,0,1-1.814,5.581A4.162,4.162,0,0,1-83.913,2127.676Z" transform="translate(151.843 -1991.638)" fill="#8abb2a"/></g><g transform="translate(825.381 2130.001)"><path d="M-109.6,2134.6a4.14,4.14,0,0,1-3.7-2.265l-11.773-23.1c-7.019-13.774-7.019-36.192,0-49.963,5.863-11.5,5.863-30.937,0-42.436l-11.767-23.1a4.147,4.147,0,0,1,1.811-5.578,4.156,4.156,0,0,1,5.578,1.814l11.77,23.1c7.021,13.772,7.021,36.186,0,49.963-5.857,11.5-5.857,30.932,0,42.436l11.773,23.1a4.151,4.151,0,0,1-1.814,5.581A4.156,4.156,0,0,1-109.6,2134.6Z" transform="translate(137.292 -1987.712)" fill="#8abb2a"/></g><g transform="translate(307.273 3900.033)"><path d="M-320.491,2720.851a4.132,4.132,0,0,1-3.357-1.712,4.145,4.145,0,0,1,.915-5.794l20.976-15.238c12.008-8.724,33.708-17.713,48.37-20.035,12.749-2.021,28.47-13.443,34.33-24.941l11.77-23.1a4.158,4.158,0,0,1,5.581-1.817,4.152,4.152,0,0,1,1.811,5.582l-11.77,23.1c-7.019,13.774-25.155,26.949-40.425,29.368-13.349,2.114-33.86,10.612-44.792,18.557l-20.973,15.235A4.13,4.13,0,0,1-320.491,2720.851Z" transform="translate(324.642 -2627.765)" fill="#8abb2a"/></g><g transform="translate(307.276 3763.656)"><path d="M-320.49,2807.91a4.13,4.13,0,0,1-3.357-1.712,4.145,4.145,0,0,1,.915-5.793l20.976-15.238c12.505-9.086,34.643-12.594,49.352-7.817,10.724,3.473,58.409-18.628,109.722-55.906l32.176-23.376c52.629-38.235,93.834-75.409,99.3-86.136,7.021-13.775,25.157-26.952,40.425-29.369l25.608-4.057a4.148,4.148,0,0,1,1.3,8.194l-25.608,4.057c-12.749,2.022-28.47,13.44-34.333,24.942-7.649,15.017-57.773,57.084-101.813,89.083L-138,2728.157c-43.874,31.869-99.844,62.684-117.166,57.082-12.27-3.983-31.468-.946-41.91,6.642l-20.973,15.235A4.126,4.126,0,0,1-320.49,2807.91Z" transform="translate(324.641 -2578.45)" fill="#8abb2a"/></g><g transform="translate(566.344 3763.661)"><path d="M-226.808,2671.538a4.141,4.141,0,0,1-3.36-1.709,4.151,4.151,0,0,1,.915-5.8l20.979-15.24c12-8.725,33.705-17.713,48.368-20.035,12.751-2.019,28.473-13.44,34.33-24.939l11.773-23.1a4.155,4.155,0,0,1,5.578-1.814,4.15,4.15,0,0,1,1.814,5.581l-11.772,23.1c-7.016,13.777-25.152,26.949-40.423,29.369-13.349,2.116-33.863,10.611-44.792,18.556l-20.976,15.24A4.133,4.133,0,0,1-226.808,2671.538Z" transform="translate(230.961 -2578.452)" fill="#8abb2a"/></g><g transform="translate(566.348 3505.9)"><path d="M-226.807,2836.088a4.145,4.145,0,0,1-3.36-1.71,4.151,4.151,0,0,1,.918-5.8l20.976-15.24c12.508-9.09,34.646-12.591,49.352-7.816,10.94,3.557,38.816-4.389,62.886-21.878,22.3-16.2,46.327-40.062,52.463-52.1l47.082-92.4c18.894-37.084,34.858-79.831,34.858-93.345,0-15.459,10.174-35.431,22.682-44.521l20.976-15.24a4.149,4.149,0,0,1,4.876,6.715L65.929,2507.99c-10.442,7.588-19.264,24.9-19.264,37.81,0,15.1-15.711,57.753-35.763,97.111l-47.082,92.4c-6.739,13.228-31.4,37.923-54.98,55.052-24.48,17.785-55.375,27.9-70.325,23.056-12.276-4-31.471-.954-41.913,6.636l-20.976,15.241A4.136,4.136,0,0,1-226.807,2836.088Z" transform="translate(230.959 -2485.244)" fill="#8abb2a"/></g><g transform="translate(812.135 3505.902)"><path d="M-137.937,2622.067a4.152,4.152,0,0,1-1.88-.45,4.15,4.15,0,0,1-1.811-5.578l11.77-23.1c6.739-13.227,21.994-31.085,34-39.814,10.445-7.585,19.267-24.9,19.267-37.806v-25.926a4.148,4.148,0,0,1,4.148-4.148,4.149,4.149,0,0,1,4.148,4.148v25.926c0,15.461-10.177,35.43-22.685,44.521-10.935,7.942-25.354,24.826-31.487,36.867l-11.77,23.1A4.143,4.143,0,0,1-137.937,2622.067Z" transform="translate(142.082 -2485.245)" fill="#8abb2a"/></g><g transform="translate(812.135 3477.071)"><path d="M-137.937,2640.474a4.141,4.141,0,0,1-1.88-.451,4.149,4.149,0,0,1-1.811-5.578l11.77-23.1c7.019-13.775,25.154-26.953,40.425-29.369,12.749-2.019,28.467-13.44,34.33-24.939,8.266-16.23,66.575-33.515,117.244-41.54,60.685-9.613,111.879-23.645,121.616-30.722,12.511-9.089,34.648-12.6,49.352-7.815l24.657,8.009a4.149,4.149,0,0,1-2.564,7.893l-24.657-8.012c-12.279-4-31.471-.95-41.913,6.638-13.628,9.9-74.357,24.154-125.192,32.2C4.306,2533.056-42.6,2550.763-47.714,2560.8c-7.019,13.775-25.152,26.953-40.423,29.37-12.749,2.018-28.47,13.439-34.33,24.941l-11.77,23.1A4.144,4.144,0,0,1-137.937,2640.474Z" transform="translate(142.082 -2474.819)" fill="#8abb2a"/></g><g transform="translate(1064.075 3487.015)"><path d="M42.719,2511.113a49.012,49.012,0,0,1-14.961-2.135c-12.851-4.179-34.988-5.924-48.332-3.805l-25.608,4.053a4.16,4.16,0,0,1-4.745-3.448,4.149,4.149,0,0,1,3.449-4.746l25.605-4.055c14.66-2.322,38.072-.48,52.2,4.107,12.279,3.993,31.471.951,41.913-6.638l20.973-15.24a4.149,4.149,0,0,1,4.878,6.714L77.111,2501.16C68.4,2507.49,55.009,2511.113,42.719,2511.113Z" transform="translate(50.979 -2478.416)" fill="#8abb2a"/></g><g transform="translate(1064.078 3505.093)"><path d="M60.851,2522.667c-14.364,0-31.6-6.461-41.067-15.921-9.126-9.129-27.619-15.144-40.356-13.113l-25.608,4.053a4.158,4.158,0,0,1-4.746-3.448,4.149,4.149,0,0,1,3.449-4.746l25.605-4.054c15.279-2.43,36.59,4.508,47.521,15.442C34.781,2510,53.271,2516,66.008,2513.991l25.605-4.056a4.148,4.148,0,0,1,1.3,8.194l-25.608,4.057A41.287,41.287,0,0,1,60.851,2522.667Z" transform="translate(50.978 -2484.952)" fill="#8abb2a"/></g><g transform="translate(1104.885 3502.002)"><path d="M-32.077,2620.658a4.134,4.134,0,0,1-1.881-.451,4.146,4.146,0,0,1-1.811-5.577l11.77-23.1c6.739-13.224,21.991-31.086,34-39.814,10.445-7.586,19.267-24.9,19.267-37.806v-25.927a4.148,4.148,0,0,1,8.3,0v25.927c0,15.461-10.177,35.431-22.688,44.518-10.932,7.945-25.351,24.828-31.485,36.866l-11.77,23.1A4.15,4.15,0,0,1-32.077,2620.658Z" transform="translate(36.222 -2483.835)" fill="#8abb2a"/></g><g transform="translate(1104.885 3530.021)"><path d="M-32.077,2602.772a4.133,4.133,0,0,1-1.881-.451,4.147,4.147,0,0,1-1.811-5.578l11.77-23.1c7.019-13.775,25.155-26.949,40.423-29.37,12.751-2.018,28.473-13.439,34.333-24.941l11.77-23.1a4.148,4.148,0,1,1,7.392,3.764l-11.77,23.1c-7.019,13.774-25.155,26.95-40.425,29.37-12.749,2.019-28.47,13.439-34.33,24.938l-11.77,23.1A4.15,4.15,0,0,1-32.077,2602.772Z" transform="translate(36.222 -2493.967)" fill="#8abb2a"/></g></g></g></svg>